<svg xmlns="http://www.w3.org/2000/svg" width="132" height="37" viewBox="0 0 132 37" fill="none">
  <path d="M2.06685 13.3459C1.58426 13.325 1.96626 13.7793 1.84459 13.9571C2.29125 13.9986 2.54009 13.9324 2.51207 13.7129C2.51207 13.672 2.51207 13.631 2.51207 13.5905C2.13319 13.6354 2.09199 13.4951 2.06685 13.3459Z" fill="#FFFEFE"/>
  <path d="M3.17816 21.413C3.47992 21.3757 3.36233 21.1073 3.40041 20.9244C3.40041 20.8429 3.40041 20.7618 3.40041 20.6798C3.40041 20.5578 3.40041 20.4356 3.40041 20.3132C3.17408 20.3922 3.16977 20.5947 2.73293 20.5578C2.40554 21.1047 3.38388 20.9334 3.17816 21.413Z" fill="#FFFEFE"/>
  <path d="M1.84545 10.9012C1.83946 10.7827 1.57362 10.8067 1.40118 10.7791C1.40118 10.9012 1.40118 11.0237 1.40118 11.1461C1.46345 11.344 1.19019 11.3566 1.17773 11.5126C2.05333 11.6678 1.84018 11.2246 1.84545 10.9012Z" fill="#FFFEFE"/>
  <path d="M0.7331 10.2905C0.113283 10.3459 0.906974 9.62465 0.287397 9.67978C-0.66532 10.0987 1.14887 10.605 0.0656231 10.7793C0.550364 10.8017 0.772856 10.6795 0.7331 10.4132C0.7331 10.3719 0.7331 10.3318 0.7331 10.2905Z" fill="#FFFEFE"/>
  <path d="M43.2074 2.71294C42.8 2.34188 42.5267 3.05994 42.5399 3.3237C42.7621 3.3237 42.9856 3.3237 43.2074 3.3237C43.2074 3.11976 43.2074 2.91624 43.2074 2.71294Z" fill="#FFFEFE"/>
  <path d="M131.928 22.691C131.928 22.6498 131.928 22.609 131.928 22.5676C131.998 22.3256 131.612 22.3234 131.461 22.1986C131.461 22.116 131.461 22.0338 131.461 21.952C131.643 21.9241 131.923 21.9484 131.928 21.8287C131.745 21.8008 131.469 21.8254 131.461 21.7053C131.561 21.512 132.195 21.6001 131.928 21.2129C131.772 21.2129 131.617 21.2129 131.461 21.2129C131.468 21.0933 131.745 21.1174 131.928 21.0895C131.928 20.8839 131.928 20.679 131.928 20.4735C131.928 20.4323 131.928 20.3915 131.928 20.3501C131.826 20.1171 132.246 19.6079 131.461 19.7345C131.461 19.5697 131.461 19.4062 131.461 19.2421C132.128 18.8164 131.097 18.7681 131.928 18.2559C131.225 18.3802 131.515 17.9815 131.461 17.7629C131.383 17.7629 131.304 17.7629 131.227 17.7629C131.227 17.6811 131.227 17.5989 131.227 17.517C131.24 17.3591 131.528 17.3462 131.461 17.1473C131.513 17.0518 131.656 17.0042 131.928 17.0239C131.697 16.7096 131.109 16.509 131.928 16.285C131.695 16.285 131.461 16.285 131.227 16.285C131.227 16.162 131.227 16.0386 131.227 15.9153C131.081 15.4492 129.967 15.0087 130.76 14.4373C130.77 14.2674 130.649 14.1665 130.527 14.0674C130.633 14.0719 130.698 14.0541 130.737 14.0234C130.799 14.0058 130.836 13.9885 130.852 13.9709C130.855 13.9674 130.856 13.964 130.858 13.9606C130.859 13.9582 130.861 13.9558 130.862 13.9533C130.864 13.9415 130.858 13.9297 130.846 13.9179C130.833 13.9061 130.814 13.8941 130.79 13.8818C130.782 13.7396 130.688 13.5516 130.76 13.4514C130.943 13.4235 131.223 13.4486 131.227 13.328C131.227 13.2047 131.227 13.0824 131.227 12.959C130.952 12.9392 130.565 12.98 130.527 12.8356C130.601 12.6687 130.858 12.6002 130.76 12.3423C130.76 12.3016 130.76 12.2599 130.76 12.2198C130.324 11.6602 131.689 12.0522 131.461 11.6034C131.397 11.1712 130.426 11.8257 130.526 11.4804C130.432 11.1835 130.952 11.212 130.76 10.864C130.631 11.165 129.571 10.9768 129.825 11.4804C129.117 11.5255 129.343 11.079 129.125 10.864C128.971 10.864 128.814 10.864 128.657 10.864C128.39 10.4767 129.025 10.5644 129.125 10.3715C129.214 9.95507 128.093 10.1774 128.427 9.63258C128.427 9.50921 128.427 9.38605 128.427 9.26225C128.427 9.1805 128.427 9.09875 128.427 9.01657C128.693 8.87066 128.688 8.58122 128.657 8.27739C128.58 8.27739 128.503 8.27739 128.427 8.27739C128.427 8.23598 128.427 8.19565 128.427 8.15402C128.005 8.1699 127.877 8.0315 127.957 7.78411C127.905 7.68863 127.951 7.54122 127.723 7.53843C127.402 7.5438 127.209 7.48029 127.025 7.41506C127.402 8.06626 125.765 7.65408 125.854 8.15402C127.089 8.30078 125.798 8.94576 125.854 9.26203C125.541 9.30172 125.41 9.43819 124.922 9.38583C125.365 8.9728 123.775 8.93546 124.922 8.89298C125.67 9.00069 125.651 8.70352 125.854 8.52307C125.585 8.50311 125.6 8.32846 125.623 8.15402C125.233 8.15402 124.843 8.15402 124.452 8.15402C124.817 7.71652 123.662 8.07956 123.754 7.78411C124.381 7.86907 124.203 7.52985 124.452 7.41506C123.718 7.55603 123.885 7.22152 123.521 7.16852C123.521 7.0046 123.521 6.83981 123.521 6.67567C122.684 6.60443 122.809 7.04021 122.817 7.41506C122.535 7.40047 122.266 7.37794 122.353 7.16852C122.111 6.58941 123.167 6.69391 122.817 6.06008C122.817 5.93671 122.817 5.81355 122.817 5.69017C122.817 5.40287 122.817 5.11557 122.817 4.82783C122.664 4.82783 122.507 4.82783 122.353 4.82783C122.104 4.94263 122.281 5.28229 121.652 5.19775C121.652 5.07437 121.652 4.95121 121.652 4.82783C121.652 4.70424 121.652 4.58173 121.652 4.45835C121.652 4.25323 121.652 4.04768 121.652 3.84255C121.806 3.84255 121.962 3.84255 122.119 3.84255C122.469 3.82174 122.981 3.88611 123.054 3.7194C123.051 3.69923 123.043 3.68099 123.035 3.66361C123.027 3.6473 123.016 3.6325 123.004 3.61833C122.963 3.37545 123.779 3.58422 123.521 3.22654C123.13 2.8165 121.965 2.81479 121.652 2.36377C121.342 2.36377 121.028 2.36377 120.718 2.36377C120.155 2.4142 120.209 2.13891 119.55 2.2404C119.472 2.2404 119.395 2.2404 119.316 2.2404C119.162 2.2404 119.003 2.2404 118.849 2.2404C118.646 2.42063 118.664 2.71759 117.914 2.61052C117.864 2.70622 117.719 2.75342 117.448 2.7339C117.08 2.74506 117.265 3.04802 116.746 2.98C116.605 2.68476 116.41 2.41806 116.513 1.99451C116.462 1.89838 116.318 1.85139 116.046 1.87135C116.01 1.72673 116.087 1.52182 115.812 1.50165C115.096 1.63404 114.19 1.50251 113.479 1.87135C113.091 1.86963 113.345 1.52955 113.009 1.50165C113.009 1.62503 113.009 1.74776 113.009 1.87135C112.303 1.75162 112.226 1.29996 111.375 1.25555C111.067 1.25727 111.163 1.47097 110.909 1.50165C109.798 1.45702 110.003 0.990347 108.806 1.25555C107.977 1.06373 108.665 1.67374 108.106 1.62503C107.32 1.49865 107.743 2.00824 107.639 2.24061C107.153 2.31399 106.105 2.08827 106.003 2.36399C106.186 2.39145 106.274 2.46719 106.237 2.61074C105.925 2.61074 105.614 2.61074 105.303 2.61074C105.147 2.61074 104.991 2.61074 104.836 2.61074C103.642 2.51461 103.681 3.06926 102.5 2.98C101.618 3.15852 102.052 2.64164 101.331 2.7339C101.362 2.95469 101.099 3.02184 100.632 2.98C100.632 2.85727 100.632 2.7339 100.632 2.61074C99.4377 2.51461 99.4777 3.06926 98.2959 2.98C97.2845 3.10295 96.9997 2.84225 96.4279 2.7339C96.2637 3.11282 96.2637 2.97035 96.4279 3.34948C97.05 3.34948 97.6723 3.34948 98.2959 3.34948C98.3736 3.34948 98.4509 3.34948 98.5288 3.34948C98.5568 3.1995 98.599 3.05768 98.997 3.10316C99.3632 3.15595 99.1969 3.49088 99.9302 3.34948C100.253 3.34412 100.444 3.40763 100.632 3.47286C100.885 3.7887 99.9224 4.05991 100.632 4.21182C100.632 4.3352 100.632 4.45836 100.632 4.58173C100.554 4.58173 100.475 4.58173 100.398 4.58173C100.478 4.82827 100.35 4.96687 99.9299 4.95121C99.9116 4.75617 100.043 4.4811 99.6973 4.45835C99.3069 4.45835 98.918 4.45835 98.5283 4.45835C98.4504 4.45835 98.3731 4.45835 98.2954 4.45835C97.6789 4.45556 96.8317 4.57358 97.1272 4.08844C97.6774 4.08651 97.8147 4.30022 98.5283 4.21182C98.8015 4.23242 98.9449 4.18478 98.9965 4.08844C99.0815 3.87881 98.8143 3.85629 98.5283 3.84255C98.0615 3.84255 97.5949 3.84255 97.1272 3.84255C97.1272 3.80114 97.1272 3.75995 97.1272 3.7194C96.5829 3.7194 96.0381 3.7194 95.4917 3.7194C95.1031 3.7194 94.7134 3.7194 94.3245 3.7194C94.0267 3.72626 94.0013 3.87731 93.6232 3.84255C93.6232 3.92452 93.6232 4.00669 93.6232 4.08844C94.2468 4.08844 94.8691 4.08844 95.4917 4.08844C95.4917 4.21182 95.4917 4.33498 95.4917 4.45835C95.2588 4.45835 95.0258 4.45835 94.7922 4.45835C94.1696 4.45835 93.5463 4.45835 92.9229 4.45835C92.9229 4.37575 92.9229 4.294 92.9229 4.21182C92.8452 4.21182 92.7677 4.21182 92.6892 4.21182C92.6638 4.36202 92.6198 4.50363 92.2226 4.45835C92.0242 4.19315 91.3626 4.17256 90.5879 4.21182C90.4314 4.21182 90.2757 4.21182 90.1202 4.21182C89.8088 4.21182 89.4979 4.21182 89.186 4.21182C89.1468 4.06828 88.8172 4.07793 88.4857 4.08844C88.3297 4.08844 88.174 4.08844 88.0173 4.08844C87.5515 4.08844 87.0841 4.08844 86.6165 4.08844C86.1504 4.08844 85.6833 4.08844 85.2149 4.08844C84.7488 4.08844 84.2814 4.08844 83.8138 4.08844C83.5803 4.08844 83.3472 4.08844 83.1142 4.08844C82.1953 4.20281 82.5234 3.6606 81.4787 3.84255C80.4964 3.89898 78.9678 3.66811 78.6762 4.08844C78.6762 3.96507 78.6762 3.84256 78.6762 3.7194C78.9861 3.7194 79.2986 3.7194 79.6095 3.7194C79.6095 3.63679 79.6095 3.55461 79.6095 3.47286C80.2328 3.47286 80.8554 3.47286 81.4787 3.47286C82.023 3.47286 82.5679 3.47286 83.1142 3.47286C83.2692 3.47286 83.4241 3.47286 83.5803 3.47286C84.3556 3.43381 85.0167 3.45376 85.2149 3.7194C86.2271 3.14436 89.3696 3.69236 90.8208 3.34948C91.5221 3.34948 92.2224 3.34948 92.9229 3.34948C93.3652 3.29498 94.3308 3.51706 94.0909 3.10316C93.8924 2.74162 93.3395 3.17697 92.9229 3.10316C92.3142 2.90104 91.9107 3.07956 90.8208 2.97979C90.769 2.88452 90.8147 2.7369 90.5876 2.73368C90.9201 3.36043 89.4111 3.01648 88.7191 3.10295C87.9949 3.14458 87.6028 2.81758 87.0838 3.10295C86.6245 3.06583 86.62 3.26902 86.3825 3.34927C86.3825 3.26688 86.3825 3.18491 86.3825 3.10295C85.6644 3.01069 86.0985 3.52736 85.2146 3.34927C85.4028 2.88109 84.1114 3.19285 83.5801 3.10295C82.7855 3.66339 82.1096 2.78432 81.4787 3.34927C81.4787 3.22632 81.4787 3.10295 81.4787 2.97957C80.6471 2.78818 81.3376 3.39776 80.7769 3.34927C79.8852 3.15337 80.5022 3.15337 79.6097 3.34927C79.3373 3.32867 79.3559 3.15466 79.376 2.97957C78.7844 3.16024 78.4745 3.48895 77.5083 3.47243C77.0407 3.47243 76.5736 3.47243 76.106 3.47243C76.0541 3.5677 76.0997 3.71532 75.873 3.71896C75.4147 3.75544 75.4102 3.55204 75.1717 3.47243C74.7305 3.52715 73.7653 3.30464 74.0046 3.71896C73.8222 3.69193 73.7321 3.6149 73.7706 3.47243C73.6157 3.47243 73.4597 3.47243 73.3033 3.47243C72.9921 3.47243 72.6814 3.47243 72.369 3.47243C72.1353 3.47243 71.9014 3.47243 71.6692 3.47243C71.2791 3.47243 70.8892 3.47243 70.4998 3.47243C69.956 3.47243 69.4111 3.47243 68.865 3.47243C68.4754 3.47243 68.0867 3.47243 67.6974 3.47243C67.6201 3.47243 67.5422 3.47243 67.4634 3.47243C67.3085 3.47243 67.1535 3.47243 66.9976 3.47243C66.2832 3.56105 66.1458 3.34626 65.596 3.34905C65.6392 3.45376 65.5049 3.46492 65.3628 3.47243C65.0899 3.49239 64.9462 3.44539 64.8947 3.34905C64.752 3.38489 63.9959 3.65567 63.9612 3.34905C63.7277 3.34905 63.4938 3.34905 63.2591 3.34905C62.5996 3.24735 62.6552 3.52264 62.092 3.47243C62.1352 3.36751 62.0009 3.35635 61.8583 3.34905C61.8583 3.26666 61.8583 3.1847 61.8583 3.10273C61.4686 3.10273 61.08 3.10273 60.6911 3.10273C60.6911 3.1847 60.6911 3.26666 60.6911 3.34905C60.6177 3.51577 60.1063 3.4514 59.7566 3.47243C59.367 3.47243 58.9783 3.47243 58.5879 3.47243C58.3482 3.88654 59.3147 3.66404 59.7566 3.71896C59.7144 3.82324 59.8477 3.8344 59.9903 3.84212C60.3792 3.84212 60.7688 3.84212 61.1582 3.84212C61.4684 3.84212 61.7808 3.84212 62.0917 3.84212C62.3762 3.85586 62.6448 3.87839 62.5598 4.08802C62.636 4.08802 62.715 4.08802 62.793 4.08802C62.8194 3.93761 62.8632 3.79642 63.2589 3.84212C63.7272 3.84212 64.1949 3.84212 64.6605 3.84212C64.8942 3.84212 65.1281 3.84212 65.3625 3.84212C65.7298 3.85264 65.5449 4.1556 66.0616 4.08802C66.099 4.23306 66.0221 4.43776 66.2963 4.45792C66.3229 4.30773 66.3657 4.16612 66.7636 4.21139C66.7636 4.33477 66.7636 4.45793 66.7636 4.5813C67.0391 4.56199 67.4262 4.60254 67.4632 4.45792C67.6815 4.58967 68.3265 4.49612 68.1652 4.8274C68.3473 4.79994 68.4359 4.7242 68.3989 4.5813C68.7292 4.5916 69.06 4.60168 69.0987 4.45792C68.732 4.44569 68.2885 4.47445 68.3989 4.21139C68.9614 4.2616 68.9065 3.98653 69.5661 4.08802C69.6363 3.84577 69.2506 3.84384 69.0987 3.71896C69.438 3.78591 70.3059 3.57478 70.2664 3.84212C70.2007 4.04081 70.487 4.05412 70.4995 4.21139C70.4233 4.21139 70.3444 4.21139 70.2664 4.21139C70.2558 4.38133 70.3776 4.48217 70.4995 4.5813C70.6563 4.5813 70.8127 4.5813 70.9677 4.5813C70.981 4.50642 71.0019 4.4354 71.2014 4.45792C71.3566 4.45792 71.5113 4.45792 71.669 4.45792C71.9837 4.49612 72.1142 4.63323 72.6032 4.5813C72.7491 4.19637 74.7023 4.8965 73.303 4.95078C73.3468 4.84608 73.2112 4.8347 73.0701 4.8274C73.0399 5.09926 72.0795 4.87976 71.669 4.95078C71.5115 4.95078 71.3566 4.95078 71.2014 4.95078C70.5911 4.9849 70.0327 4.99176 70.2664 4.5813C70.1107 4.5813 69.9557 4.5813 69.8005 4.5813C69.8005 4.70382 69.8005 4.82741 69.8005 4.95078C69.721 4.95078 69.6438 4.95078 69.5658 4.95078C68.8479 4.8641 69.1171 4.8641 68.3987 4.95078C68.165 4.95078 67.9303 4.95078 67.6969 4.95078C67.4629 4.95078 67.2307 4.95078 66.9971 4.95078C66.7634 4.95078 66.5294 4.95078 66.296 4.95078C66.0613 4.95078 65.8291 4.95078 65.5955 4.95078C64.6441 4.82076 64.4892 4.9849 63.2586 4.95078C63.1034 4.95078 62.9487 4.95078 62.7928 4.95078C62.7928 4.90916 62.7928 4.8686 62.7928 4.8274C62.7148 4.8274 62.6358 4.8274 62.5596 4.8274C62.5596 4.8686 62.5596 4.90916 62.5596 4.95078C61.9959 5.00099 62.0512 4.72592 61.3919 4.8274C60.9026 4.77527 60.7723 4.91195 60.4559 4.95078C60.0803 4.9849 60.0539 4.83384 59.7561 4.8274C59.5997 4.8274 59.4437 4.8274 59.2887 4.8274C59.0548 4.8274 58.8211 4.8274 58.5874 4.8274C58.5874 4.8686 58.5874 4.90916 58.5874 4.95078C58.0743 5.03167 57.6555 4.25967 57.653 4.8274C57.498 4.8274 57.3423 4.8274 57.1856 4.8274C57.1856 4.74523 57.1856 4.66327 57.1856 4.5813C57.2389 4.48496 57.3823 4.43776 57.653 4.45792C57.653 4.2528 57.653 4.04725 57.653 3.84212C57.7317 3.84212 57.8084 3.84212 57.8876 3.84212C57.8876 3.92409 57.8876 4.00627 57.8876 4.08802C58.1724 4.07471 58.4408 4.05133 58.3545 3.84212C58.3545 3.71896 58.3545 3.59559 58.3545 3.47243C58.1978 3.47243 58.0428 3.47243 57.8876 3.47243C57.2658 3.47157 57.2912 3.12955 56.9534 2.97957C56.9464 3.0993 56.6664 3.07549 56.4858 3.10295C56.357 3.37588 56.9318 3.27825 56.9534 3.47264C56.0972 3.47264 55.2401 3.47264 54.3829 3.47264C53.5729 3.56276 52.1675 3.33811 52.0478 3.47264C51.8921 3.47264 51.7369 3.47264 51.5802 3.47264C50.8673 3.56126 50.7295 3.34648 50.1786 3.34927C50.1786 3.39025 50.1786 3.43145 50.1786 3.47264C49.8485 3.48316 49.5175 3.4926 49.479 3.34927C49.2026 3.49131 48.6537 3.48895 48.0774 3.47264C47.8782 3.49517 47.8568 3.42437 47.8442 3.34927C47.6501 3.00103 48.173 3.03 48.0774 2.73368C47.1668 2.51161 47.2581 3.43553 46.6763 2.97979C46.5976 2.97979 46.5191 2.97979 46.4426 2.97979C46.4426 3.10316 46.4426 3.22632 46.4426 3.34948C46.4426 3.39046 46.4426 3.43166 46.4426 3.47286C45.975 3.47286 45.5071 3.47286 45.041 3.47286C44.8861 3.47286 44.7289 3.47286 44.5734 3.47286C44.0291 3.47286 43.4827 3.47286 42.9391 3.47286C42.9391 3.43166 42.9391 3.39046 42.9391 3.34948C42.9391 3.26709 42.9391 3.18513 42.9391 3.10316C42.7568 3.0757 42.4786 3.09952 42.4723 2.97979C42.7563 2.96584 43.0247 2.94267 42.9391 2.73368C42.7044 2.73368 42.4723 2.73368 42.2386 2.73368C42.2386 2.97979 42.2386 3.22632 42.2386 3.47264C41.9669 3.4926 41.822 3.44561 41.771 3.34927C41.6922 3.34927 41.6153 3.34927 41.5375 3.34927C41.5375 3.39025 41.5375 3.43145 41.5375 3.47264C41.1487 3.47264 40.759 3.47264 40.3704 3.47264C40.3704 3.34927 40.3704 3.22633 40.3704 3.10295C40.0595 3.10295 39.7471 3.10295 39.4361 3.10295C39.5063 3.34519 39.1199 3.34712 38.9685 3.47264C38.7348 3.47264 38.5009 3.47264 38.2665 3.47264C38.069 3.49517 38.0476 3.42437 38.0345 3.34927C38.397 2.91177 37.2407 3.27503 37.3342 2.97957C37.3637 2.75836 37.1013 2.6912 36.6339 2.73347C36.647 2.65816 36.6679 2.58756 36.8659 2.61009C37.2054 2.67725 38.0733 2.46591 38.0348 2.73347C38.3334 2.7266 38.3573 2.57533 38.7351 2.61009C38.962 2.60645 38.9157 2.45904 38.9688 2.36334C38.637 2.37429 38.3077 2.38394 38.2667 2.23997C37.5533 2.15093 37.5805 2.45282 36.8659 2.36334C36.556 2.36334 36.2425 2.36334 35.9326 2.36334C35.3093 2.36334 34.6867 2.36334 34.0634 2.36334C33.583 1.91898 32.8399 1.61237 32.4279 1.13153C32.2727 1.13153 32.118 1.13153 31.9618 1.13153C32.197 0.760762 31.4418 0.913102 31.027 0.885423C31.027 0.967172 31.027 1.04935 31.027 1.13153C31.0748 2.00953 32.2342 2.30134 33.1299 2.73325C33.1299 2.815 33.1299 2.89718 33.1299 2.97936C33.2041 3.38832 33.1654 3.73699 32.6616 3.84212C32.6915 4.06334 32.4309 4.13028 31.9618 4.08802C31.593 4.07664 31.7776 3.77368 31.2607 3.84212C31.1883 3.67541 30.9282 3.60696 31.027 3.34905C30.8718 3.34905 30.7159 3.34905 30.5602 3.34905C30.5602 3.30786 30.5602 3.26666 30.5602 3.22611C29.9006 3.04008 29.3563 2.79376 28.9256 2.48672C29.4657 1.9443 28.4721 1.28473 27.9899 0.885423C27.8417 1.48256 25.8407 1.32721 26.3569 0.515943C25.1195 0.684805 24.6735 1.27057 23.5529 1.50101C23.2958 0.831783 24.3666 0.862465 24.0205 0.146033C23.4573 0.196456 23.5129 -0.0788299 22.8534 0.0226592C22.3797 1.29267 19.9968 1.55444 18.6483 2.36334C18.281 2.37429 18.4662 2.67768 17.948 2.61009C17.8962 2.5144 17.9417 2.36699 17.7133 2.36334C17.8894 2.74291 16.9104 2.51376 17.2474 2.97936C16.9348 2.97936 16.6239 2.97936 16.3125 2.97936C16.1173 3.36923 15.9404 3.76853 15.1453 3.84212C15.2841 3.52178 15.051 3.39862 14.4447 3.47243C14.127 3.43467 14.2511 3.1641 14.2111 2.97957C14.2111 2.77402 14.2111 2.56911 14.2111 2.36356C13.8896 2.36893 13.6982 2.30584 13.5098 2.24018C13.5963 2.03098 13.3286 2.00824 13.0431 1.99408C13.0431 2.24019 13.0431 2.48693 13.0431 2.73368C13.0431 2.81543 13.0431 2.89761 13.0431 2.97979C13.0431 3.14372 13.0431 3.30829 13.0431 3.47264C12.7315 3.47264 12.4208 3.47264 12.1082 3.47264C11.5258 3.53508 11.3284 3.8005 10.7073 3.84234C10.1018 3.76789 9.8674 3.89105 10.007 4.21161C9.07831 4.26868 9.56127 3.34434 10.007 3.34927C9.61837 3.34927 9.22848 3.34927 8.83984 3.34927C8.83984 3.51406 8.83984 3.67756 8.83984 3.84234C8.09678 3.90156 9.2315 4.95293 8.13854 4.82762C8.13854 4.86882 8.13854 4.90937 8.13854 4.951C8.05956 4.951 7.98283 4.951 7.90486 4.951C7.99742 4.65532 6.84108 5.01901 7.20456 4.58151C7.53534 4.59181 7.86662 4.6019 7.90486 4.45814C7.90486 4.37553 7.90486 4.29378 7.90486 4.21161C7.67117 4.21161 7.43824 4.21161 7.20456 4.21161C6.97087 4.21161 6.73694 4.21161 6.50325 4.21161C6.27032 4.21161 6.03664 4.21161 5.80295 4.21161C5.80295 4.29378 5.80295 4.37553 5.80295 4.45814C5.80597 4.66112 6.45093 4.52659 6.50325 4.70403C6.48237 4.89907 5.90835 4.80101 6.03664 5.07437C6.0389 5.23679 6.4454 5.1868 6.50325 5.3209C6.50325 5.40265 6.50325 5.48462 6.50325 5.56679C6.73694 5.56679 6.97087 5.56679 7.20456 5.56679C7.20456 5.60799 7.20456 5.64941 7.20456 5.69017C7.20456 5.81355 7.20456 5.93671 7.20456 6.06008C7.27474 6.30211 6.88837 6.30426 6.73694 6.42913C7.02244 6.44372 7.29008 6.46625 7.20456 6.67567C6.4293 6.71472 6.32114 6.4021 5.80295 6.30576C5.98507 6.27872 6.07462 6.20298 6.03664 6.05987C5.80295 6.05987 5.56902 6.05987 5.33533 6.05987C5.17259 6.43857 5.17259 6.29675 5.33533 6.67545C5.25811 6.67545 5.17963 6.67545 5.1024 6.67545C5.1024 6.79883 5.1024 6.92199 5.1024 7.04493C5.17963 7.04493 5.25811 7.04493 5.33533 7.04493C5.33533 7.33266 5.33533 7.61997 5.33533 7.90727C5.33533 7.98902 5.33533 8.07205 5.33533 8.1538C5.14793 8.21903 4.95676 8.28233 4.63504 8.27718C4.63504 8.35914 4.63504 8.4411 4.63504 8.52307C5.33709 8.39884 5.04933 8.7975 5.10266 9.01635C5.10266 9.09853 5.10266 9.18028 5.10266 9.26203C5.10266 9.30365 5.10266 9.34507 5.10266 9.38583C5.10266 9.50921 5.10266 9.63237 5.10266 9.75574C5.10266 9.96087 5.10266 10.166 5.10266 10.3713C4.9467 10.3713 4.79024 10.3713 4.63504 10.3713C4.49719 10.6269 4.18603 10.7917 3.70055 10.8638C3.70055 10.9464 3.70055 11.0285 3.70055 11.1103C3.72998 11.3828 4.69113 11.1631 5.1024 11.2337C5.07549 11.3839 5.03197 11.5253 4.63478 11.4802C4.63478 11.6031 4.63478 11.7263 4.63478 11.8495C4.63227 12.1763 4.72333 12.5532 4.4011 12.7118C4.47883 12.7118 4.55681 12.7118 4.63478 12.7118C4.74345 12.9749 4.30149 12.9463 3.93449 12.9583C3.93449 12.9991 3.93449 13.0401 3.93449 13.0817C4.35406 13.0652 4.48059 13.2034 4.4011 13.4508C4.4011 13.7795 4.4011 14.108 4.4011 14.4367C4.63881 14.356 4.64334 14.153 5.1024 14.1902C4.84935 14.5058 5.81226 14.7772 5.1024 14.9291C4.87325 14.8027 4.64032 14.68 4.4011 14.5601C4.16792 14.5601 3.93449 14.5601 3.70055 14.5601C3.4153 14.5734 3.1469 14.5968 3.23394 14.806C4.67126 14.6227 3.23167 15.9571 4.4011 15.9148C4.37117 15.694 4.63328 15.6264 5.1024 15.6683C5.17963 15.6683 5.25811 15.6683 5.33533 15.6683C5.69856 16.1066 4.54247 15.7427 4.63504 16.0382C4.92029 16.0519 5.18818 16.0753 5.10266 16.2845C5.17988 16.2845 5.25836 16.2845 5.33559 16.2845C5.27924 16.8889 5.14894 17.0902 5.10266 17.8858C5.07574 18.036 5.03222 18.1774 4.63504 18.1323C4.37343 17.7442 4.61416 17.8534 4.63504 17.3932C4.3601 17.3736 3.97222 17.4142 3.93474 17.27C3.93776 17.0668 4.58271 17.2007 4.63504 17.0235C3.72143 17.2181 4.15132 16.7038 3.70055 16.6542C3.64898 16.7501 3.50535 16.7969 3.23394 16.7776C3.23394 16.8596 3.23394 16.9413 3.23394 17.0235C3.80343 16.9053 4.00693 17.5775 3.70055 17.5166C3.86103 17.8474 3.21784 17.7543 3.00025 17.8858C2.99472 18.1763 3.40272 18.2491 3.23368 18.6252C4.06378 18.8166 3.3748 18.207 3.93423 18.2555C3.95662 18.449 3.90329 18.6827 4.40085 18.6252C4.40085 18.5018 4.40085 18.3791 4.40085 18.2555C4.63856 18.3353 4.64308 18.5394 5.10215 18.5018C5.10215 18.5428 5.10215 18.5844 5.10215 18.6252C4.60284 18.5679 4.65692 18.8007 4.63453 18.9951C4.86897 19.5935 4.23483 20.1724 4.63453 20.473C4.56511 20.7151 4.94921 20.7176 5.10215 20.8425C5.10215 20.9659 5.10215 21.0891 5.10215 21.2124C5.10215 21.2944 5.10215 21.3761 5.10215 21.459C4.83048 21.4384 4.68635 21.486 4.63453 21.5815C4.63453 21.6641 4.63453 21.7463 4.63453 21.828C4.63453 21.9514 4.63453 22.0745 4.63453 22.1979C4.35909 22.3395 3.80897 22.337 3.23343 22.3213C3.23343 22.4033 3.23343 22.4852 3.23343 22.567C3.15571 22.567 3.07773 22.567 3 22.567C3.12351 22.6665 3.24299 22.7672 3.23343 22.9369C3.57302 23.0038 4.44009 22.7927 4.4006 23.0603C4.4006 23.1424 4.4006 23.2242 4.4006 23.3064C3.65074 23.2956 4.83577 23.8213 4.63428 24.0455C4.65491 24.2401 5.23069 24.1425 5.1019 24.4154C5.22541 24.5146 5.34565 24.6154 5.33483 24.7845C4.42525 25.0064 4.51656 24.0822 3.93398 24.5386C3.75891 24.9177 4.73943 24.6882 4.4006 25.1542C4.74999 25.1757 5.26214 25.1098 5.33483 25.2776C5.06316 25.298 5.08203 25.4726 5.1019 25.6471C5.27622 26.0266 4.2957 25.7972 4.63428 26.2626C5.02392 26.2626 5.41256 26.2626 5.8022 26.2626C5.83943 26.1184 5.76195 25.9129 6.03588 25.8936C6.4547 25.9092 6.58299 25.7706 6.5025 25.5237C6.84887 25.5466 6.71681 25.8209 6.73618 26.017C6.2834 26.1474 6.67984 26.7257 6.03588 26.7559C7.20531 26.8055 5.95489 27.1396 6.03588 27.3715C6.19083 27.3715 6.34654 27.3715 6.5025 27.3715C6.5025 27.4131 6.5025 27.4537 6.5025 27.4949C6.81492 27.7004 6.41773 28.2785 7.2038 28.2343C7.2038 28.4394 7.2038 28.645 7.2038 28.8499C7.28103 28.8499 7.359 28.8499 7.43749 28.8499C7.40629 28.6286 7.66815 28.5619 8.13778 28.6033C8.37071 28.6033 8.60541 28.6033 8.83909 28.6033C8.83909 28.5628 8.83909 28.5216 8.83909 28.4808C9.22773 28.4808 9.61762 28.4808 10.0063 28.4808C10.0063 28.3978 10.0063 28.316 10.0063 28.2343C10.2445 28.3542 10.4784 28.4776 10.7066 28.6033C10.9405 28.6033 11.1742 28.6033 11.4079 28.6033C12.7579 28.66 11.7273 28.2259 11.6415 27.9877C11.6886 27.8221 12.6105 27.7579 11.6415 27.7412C11.6415 27.659 11.6415 27.5773 11.6415 27.4951C11.68 27.3516 12.0103 27.3612 12.3418 27.3717C12.7058 27.7536 12.902 28.2259 13.509 28.481C13.4791 28.1772 13.475 27.8871 13.7429 27.7412C13.8979 27.7412 14.0551 27.7412 14.2103 27.7412C14.444 27.7412 14.6779 27.7412 14.9101 27.7412C14.9101 27.659 14.9101 27.5773 14.9101 27.4951C14.9101 27.4539 14.9101 27.4133 14.9101 27.3717C14.7549 27.3717 14.5992 27.3717 14.444 27.3717C14.444 27.29 14.444 27.208 14.444 27.1252C14.5212 27.1252 14.5992 27.1252 14.6777 27.1252C15.3103 27.2134 14.5096 26.545 15.1445 26.6328C15.2447 26.8263 15.8796 26.7379 15.6112 27.1252C15.6899 27.1252 15.7669 27.1252 15.8446 27.1252C16.9061 26.8342 15.9882 25.9852 17.2464 25.6473C16.9785 26.0348 17.6127 25.9462 17.7123 26.1405C17.619 26.3774 16.8075 26.2373 17.0128 26.633C17.2464 26.633 17.4801 26.633 17.7123 26.633C17.7123 26.7564 17.7123 26.8795 17.7123 27.002C17.947 27.002 18.1807 27.002 18.4144 27.002C18.0177 27.1215 17.8142 27.343 17.9467 27.7414C17.2801 28.0219 18.276 28.4639 17.9467 28.9737C17.7656 29.0007 17.6758 29.0769 17.7121 29.2202C17.544 29.5961 17.9518 29.6691 17.9467 29.9594C17.9467 30.1233 17.9467 30.2881 17.9467 30.452C17.9467 30.5754 17.9467 30.6988 17.9467 30.8211C17.9304 31.1822 17.8627 31.5158 17.0125 31.4375C17.0125 31.4783 17.0125 31.5193 17.0125 31.5609C17.0125 31.7664 17.0125 31.9713 17.0125 32.1767C17.6882 32.7234 18.7534 33.0654 20.5173 33.0395C20.2672 33.4988 21.3919 33.2341 21.2168 33.655C21.4004 34.2444 20.4423 34.2324 20.5173 34.7635C20.7902 34.7828 21.1791 34.7422 21.2168 34.8869C21.3919 35.2664 20.4114 35.037 20.7492 35.5027C21.6678 35.6589 21.445 35.2126 21.4505 34.8869C21.6839 34.8869 21.9181 34.8869 22.1503 34.8869C22.3068 34.8869 22.4625 34.8869 22.6184 34.8869C22.6846 35.2214 22.9185 35.467 23.3197 35.6258C23.5008 35.6528 23.5904 35.729 23.5519 35.8723C24.2615 35.9174 24.0379 35.4711 24.2529 35.2565C24.712 35.2194 24.7158 35.4226 24.9543 35.5024C25.4141 35.5391 25.4163 35.3364 25.6545 35.2565C25.6545 35.3383 25.6545 35.42 25.6545 35.5024C25.6545 35.5438 25.6545 35.585 25.6545 35.6258C25.8691 35.9228 26.2585 36.1279 26.8217 36.2416C26.8217 36.283 26.8217 36.3244 26.8217 36.365C26.0364 36.2796 26.0555 36.6184 25.6545 36.7349C26.0942 36.6931 26.7284 37.3518 26.8217 36.7349C26.8994 36.7349 26.9767 36.7349 27.0551 36.7349C27.0551 36.8171 27.0551 36.8988 27.0551 36.9812C27.8538 37.0735 27.3515 36.4811 28.2233 36.6117C28.4567 36.6117 28.6907 36.6117 28.9244 36.6117C29.2622 36.1455 28.2827 36.3757 28.4568 35.9959C28.8758 36.0116 29.0039 35.8734 28.9244 35.626C28.4653 35.5889 28.4615 35.7919 28.2233 35.8726C28.2233 35.9959 28.2233 36.1191 28.2233 36.2416C27.4385 36.3688 27.8591 35.8588 27.7565 35.6258C27.8083 35.5303 27.9524 35.4827 28.2233 35.5024C28.2233 35.4203 28.2233 35.3383 28.2233 35.2565C27.7635 35.2194 27.7595 35.4226 27.5228 35.5024C27.6973 35.1233 26.7173 35.3529 27.0551 34.8866C27.2888 34.8866 27.5228 34.8866 27.7565 34.8866C28.4324 34.5249 29.5447 35.1143 30.3255 34.7633C30.3061 34.9381 30.2875 35.1119 30.5589 35.1332C30.5589 35.1735 30.5589 35.2149 30.5589 35.2565C30.539 35.6481 29.7605 35.0248 29.1581 35.5024C29.4929 35.7777 29.9952 35.9642 31.0258 35.8723C30.8328 35.5241 31.355 35.5529 31.2595 35.2565C31.2987 35.1128 31.6282 35.1229 31.9605 35.1332C31.9484 35.2902 31.6614 35.3035 31.7271 35.5022C32.0246 35.5091 32.0511 35.6601 32.4266 35.6256C32.4266 35.4615 32.4266 35.2967 32.4266 35.1332C32.5054 35.1332 32.5841 35.1332 32.6603 35.1332C32.4211 34.7184 33.3878 34.9413 33.8285 34.8866C34.1748 34.7435 34.4168 34.7435 34.763 34.8866C35.3787 34.7399 35.3646 35.4788 35.4627 34.8866C35.9311 34.8866 36.3987 34.8866 36.8644 34.8866C37.3991 35.1887 37.3906 35.7691 36.6324 35.2565C36.8475 35.4709 36.6239 35.9174 37.3327 35.8723C37.2809 35.4754 37.7453 35.3514 37.5657 34.8869C38.4581 35.0832 37.8411 35.0832 38.7336 34.8869C38.8113 34.8869 38.8888 34.8869 38.9673 34.8869C38.9673 34.9686 38.9673 35.0512 38.9673 35.1334C39.3182 34.9338 41.5446 34.5987 41.7697 35.1334C42.4896 35.2248 42.0552 34.7083 42.9379 34.8869C42.9902 34.9823 42.9449 35.1293 43.1713 35.1334C43.1985 34.9828 43.2407 34.8416 43.6379 34.8869C44.5837 34.7167 44.377 35.1544 45.0395 35.1334C45.399 34.8542 45.6143 34.8542 45.9738 35.1334C45.6299 34.774 47.0184 34.774 46.6751 35.1334C47.4305 35.2853 46.8534 34.7349 47.6096 34.8869C47.9187 34.8879 47.8231 35.1025 48.0762 35.1334C48.0467 34.9122 48.3076 34.8446 48.7765 34.8869C48.6675 35.1499 49.1105 35.1214 49.4778 35.1334C49.6335 35.1334 49.7887 35.1334 49.9436 35.1334C50.4329 35.4018 50.612 35.0718 51.3452 35.1334C51.424 35.1334 51.5019 35.1334 51.5789 35.1334C52.6696 35.1334 53.7583 35.1334 54.849 35.1334C54.8862 35.2784 54.809 35.4827 55.0837 35.5024C55.4809 35.5484 55.5234 35.407 55.5503 35.2565C55.5503 35.2151 55.5503 35.1735 55.5503 35.1332C56.0959 35.1332 56.6395 35.1332 57.1843 35.1332C57.2112 34.9825 57.2545 34.8414 57.6517 34.8866C58.5706 34.7723 58.2413 35.3149 59.2875 35.1332C59.4424 35.1332 59.5984 35.1332 59.7549 35.1332C60.0721 35.1143 59.8389 35.8202 59.0536 35.6256C58.4466 35.6992 58.2144 35.576 58.3532 35.2565C57.5546 35.1639 58.0554 35.7567 57.1843 35.6256C56.7167 35.5833 56.4546 35.6509 56.4845 35.8721C57.7729 35.9198 57.7644 35.9198 59.0533 35.8721C59.8635 35.7739 59.9513 36.0556 60.6891 35.9955C60.7283 35.8522 61.0579 35.8618 61.3904 35.8721C60.953 35.313 62.3168 35.7046 62.0899 35.2563C61.3076 35.0222 61.2359 35.8599 61.1565 35.2563C60.632 35.1617 60.4114 35.8245 59.9885 35.3797C59.99 35.2166 60.3983 35.2668 60.4547 35.1332C60.923 35.1332 61.3906 35.1332 61.8563 35.1332C62.1679 35.1332 62.4796 35.1332 62.7912 35.1332C63.2571 35.1332 63.7255 35.1332 64.1928 35.1332C64.6517 35.1699 64.6557 34.9667 64.8924 34.8866C65.0476 34.8866 65.2048 34.8866 65.3605 34.8866C66.0596 34.8866 66.7616 34.8866 67.4612 34.8866C67.931 34.8444 68.1926 34.912 68.1632 35.1332C69.1073 35.3029 68.9007 34.8652 69.5641 34.8866C69.5125 34.7912 69.3689 34.7435 69.0967 34.7633C68.8298 34.3762 69.4645 34.4639 69.5641 34.2706C69.5057 34.1369 69.0995 34.1872 69.0967 34.0241C70.01 33.8303 69.5804 34.3444 70.0314 34.394C70.3054 34.3738 70.2281 34.1691 70.2644 34.0241C70.1658 33.787 70.4248 33.5797 70.4975 33.7782C70.9798 34.5099 70.1874 34.5534 70.9657 34.8866C71.5095 34.8866 72.0556 34.8866 72.6012 34.8866C73.7183 35.0594 74.7959 34.5742 75.4039 34.8866C75.1677 34.8877 75.1099 35.1023 75.4039 35.1332C75.4308 34.9825 75.4733 34.8414 75.8705 34.8866C75.9223 34.9821 75.8766 35.1291 76.1035 35.1332C76.1035 35.051 76.1035 34.9684 76.1035 34.8866C76.9869 34.7081 76.5525 35.2246 77.2724 35.1332C77.1627 34.8701 77.6054 34.8982 77.9722 34.8866C78.0421 34.636 78.44 34.5586 78.674 34.3938C78.9069 34.3938 79.1398 34.3938 79.3735 34.3938C79.3735 34.4345 79.3735 34.476 79.3735 34.5172C80.0834 34.6691 79.1212 34.9407 79.3735 35.2565C79.5295 35.2565 79.6859 35.2565 79.8411 35.2565C80.3571 35.2409 79.9413 34.7339 80.0758 34.5172C80.843 34.512 81.2367 34.3088 82.1765 34.3938C82.2552 34.3938 82.3329 34.3938 82.4099 34.3938C82.0668 34.0344 83.4553 34.0344 83.112 34.3938C83.4782 34.3815 83.9212 34.4103 83.8115 34.1472C84.3362 34.2 84.5551 34.412 84.9794 34.5172C84.5898 34.5172 84.2004 34.5172 83.8115 34.5172C83.8115 34.5993 83.8115 34.6811 83.8115 34.7633C83.8115 34.9278 83.8115 35.0918 83.8115 35.2565C84.7427 34.9729 85.2395 35.8028 85.2126 35.2565C85.3052 34.9609 84.1496 35.325 84.5128 34.8866C84.7465 34.8866 84.9794 34.8866 85.2126 34.8866C85.2126 34.8459 85.2126 34.8045 85.2126 34.7633C85.3683 34.7633 85.525 34.7633 85.681 34.7633C85.8236 34.7991 86.5795 35.0699 86.6142 34.7633C86.8995 34.7495 87.1674 34.7261 87.0818 34.5172C87.9542 34.5058 87.7474 34.379 88.4834 34.5172C88.3785 34.8302 89.7037 35.0074 89.8843 34.7633C89.4655 34.7789 89.3382 34.6412 89.4167 34.3938C89.5734 34.3938 89.7291 34.3938 89.8843 34.3938C89.7492 33.9526 90.5753 34.0194 91.2859 34.0239C91.6625 33.4836 93.4922 33.7095 94.7896 33.6548C95.9374 33.8908 95.4137 33.245 96.1912 33.2849C96.1912 33.4497 96.1912 33.6134 96.1912 33.7782C96.5967 33.787 96.917 33.7503 97.1245 33.6548C97.1245 33.7782 97.1245 33.9005 97.1245 34.0239C97.2802 34.0239 97.4371 34.0239 97.5921 34.0239C96.9026 34.4654 95.9815 34.4118 95.0233 34.1472C94.9962 34.5847 95.1914 35.1396 94.322 35.1332C94.0468 35.1525 93.6595 35.1117 93.6207 35.2565C95.5576 35.5685 96.7341 34.4813 97.8265 35.1332C97.9817 35.1332 98.1367 35.1332 98.2926 35.1332C98.3704 35.1332 98.4476 35.1332 98.5256 35.1332C99.4583 35.3668 99.2105 34.3594 99.9272 34.8866C100.316 34.7225 101.415 34.9317 101.328 34.5172C101.484 34.5172 101.641 34.5172 101.796 34.5172C101.708 35.0325 102.645 34.6517 102.73 34.5172C102.814 34.7296 103.671 35.5346 103.898 34.8866C103.912 34.8113 103.934 34.7407 104.131 34.7633C104.131 34.6403 104.131 34.5172 104.131 34.3938C104.599 34.3938 105.067 34.3938 105.533 34.3938C105.69 34.3938 105.845 34.3938 106 34.3938C105.886 34.7826 106.421 34.8285 106.234 35.2565C105.922 35.2565 105.611 35.2565 105.299 35.2565C105.442 35.5503 105.006 36.1498 105.533 36.2414C105.859 36.0032 105.816 35.57 106.701 35.6256C107.416 35.7151 107.387 35.4136 108.103 35.5022C108.4 35.5091 108.426 35.6601 108.803 35.6256C108.878 35.4595 109.134 35.3902 109.037 35.1332C109.192 35.1332 109.347 35.1332 109.504 35.1332C109.541 35.2774 109.929 35.2368 110.205 35.2565C110.939 35.1151 110.772 35.4497 111.138 35.5024C111.294 35.5024 111.449 35.5024 111.605 35.5024C111.683 35.5024 111.76 35.5024 111.84 35.5024C112.124 35.4887 112.391 35.4653 112.307 35.2565C111.349 35.3911 112.338 34.5006 111.138 34.7633C111.102 34.6186 111.179 34.4135 110.906 34.3938C110.413 34.5039 110.5 34.9188 109.736 34.8866C109.736 34.7225 109.736 34.5577 109.736 34.3938C110.521 34.5204 110.1 34.0106 110.205 33.7782C110.475 33.5956 110.475 33.4675 110.205 33.2849C110.572 33.2738 111.013 33.3014 110.906 33.0392C111.206 32.8691 111.919 32.9167 112.54 32.9159C112.772 32.9159 113.005 32.9159 113.239 32.9159C113.262 32.7217 113.208 32.4887 113.709 32.5459C114.024 32.5841 113.901 32.8543 113.942 33.0392C114.379 33.0113 115.488 32.7208 115.809 33.0392C115.991 33.0663 116.081 33.142 116.042 33.2849C117.21 33.2849 118.378 33.2849 119.546 33.2849C120.331 33.4111 119.911 32.9021 120.014 32.6693C119.857 32.6693 119.703 32.6693 119.546 32.6693C119.533 32.594 119.51 32.5234 119.312 32.5459C119.312 32.4638 119.312 32.382 119.312 32.2998C119.531 32.1685 120.173 32.2617 120.014 31.9299C119.857 31.9299 119.703 31.9299 119.546 31.9299C119.546 31.8887 119.546 31.848 119.546 31.8066C119.109 31.2481 120.476 31.639 120.247 31.1908C120.17 31.1908 120.091 31.1908 120.014 31.1908C120.029 30.466 120.098 31.2178 120.948 31.0674C120.306 31.3955 121.135 31.3817 121.416 31.5607C121.613 31.783 122.016 31.8999 122.116 32.1765C121.331 32.1314 121.725 32.7103 121.416 32.9159C121.725 32.9159 122.037 32.9159 122.35 32.9159C123.069 33.0013 122.799 33.0013 123.518 32.9159C123.677 32.5841 123.032 32.6773 122.814 32.5459C122.681 32.1044 123.508 32.1713 124.219 32.1765C124.548 31.633 122.82 32.1743 122.814 31.8066C123.313 31.5705 124.401 31.006 124.92 31.1908C124.958 31.5405 124.129 31.4313 124.45 31.9297C124.45 32.0119 124.45 32.0936 124.45 32.1763C124.384 32.4269 123.983 32.5041 123.752 32.6689C124.15 32.6238 124.191 32.7648 124.219 32.9154C123.708 32.8929 123.475 33.0161 123.518 33.2845C124.255 33.2244 124.342 33.507 125.154 33.4079C125.154 33.2845 125.154 33.1611 125.154 33.0388C125.074 33.0388 124.997 33.0388 124.92 33.0388C125.376 32.8079 124.992 32.5876 124.92 32.2994C125.195 32.2801 125.582 32.3209 125.621 32.176C125.647 31.8617 125.662 31.5422 126.319 31.5602C126.399 31.5602 126.476 31.5602 126.555 31.5602C126.581 31.7098 126.625 31.8512 127.023 31.8059C127.099 31.8059 127.176 31.8059 127.253 31.8059C127.079 31.4263 128.06 31.6557 127.721 31.1901C128.021 31.1832 128.044 31.0322 128.425 31.0667C129.033 31.2378 129.552 31.4568 129.823 31.8057C130.057 31.8057 130.291 31.8057 130.524 31.8057C130.563 31.6607 130.486 31.4564 130.758 31.4367C130.768 31.2665 130.647 31.1659 130.524 31.0667C130.524 30.985 130.524 30.9028 130.524 30.8202C130.853 30.6646 130.54 30.1707 131.459 30.3278C131.459 30.2456 131.459 30.1639 131.459 30.0812C131.459 30.0407 131.459 29.9991 131.459 29.9585C131.615 29.9585 131.77 29.9585 131.926 29.9585C131.996 29.7158 131.61 29.7143 131.459 29.5884C131.743 29.5744 132.013 29.5517 131.926 29.3419C131.508 29.3575 131.379 29.2202 131.459 28.9728C131.459 28.9312 131.459 28.8911 131.459 28.8494C131.459 28.7261 131.459 28.6029 131.459 28.4804C131.459 28.357 131.459 28.2338 131.459 28.1105C131.379 27.8631 131.508 27.7245 131.926 27.7406C132.013 27.5314 131.743 27.508 131.459 27.4945C131.459 27.3711 131.459 27.2479 131.459 27.1245C131.957 27.1825 131.905 26.949 131.926 26.7555C131.926 26.6321 131.926 26.509 131.926 26.3856C131.926 26.2217 131.926 26.0567 131.926 25.8932C131.77 25.8932 131.615 25.8932 131.459 25.8932C131.171 25.4947 132.216 25.7988 131.926 25.4003C131.923 25.237 131.518 25.2874 131.459 25.1538C131.743 25.1396 132.013 25.1171 131.926 24.9072C131.743 24.8793 131.467 24.9044 131.459 24.7839C131.459 24.7019 131.459 24.6199 131.459 24.538C131.641 24.5101 131.921 24.5343 131.926 24.4146C131.641 24.4004 131.372 24.3779 131.459 24.1681C132.139 24.3491 132.139 23.6177 131.459 23.7988C131.518 23.6651 131.923 23.7147 131.926 23.5523C131.774 23.3431 131.39 23.4744 131.459 23.6756C131.043 23.5853 131.426 23.4516 131.459 23.3055C131.286 22.9268 132.267 23.157 131.928 22.691ZM88.4855 30.3289C88.0171 30.3289 87.5512 30.3289 87.0838 30.3289C86.8084 30.3484 86.421 30.3074 86.3825 30.4522C86.1504 30.4522 85.9164 30.4522 85.683 30.4522C85.683 30.5342 85.683 30.6159 85.683 30.699C84.8977 30.7844 84.9168 30.4456 84.5148 30.3291C84.7485 30.3291 84.9814 30.3291 85.2146 30.3291C85.2415 30.1784 85.2848 30.0375 85.683 30.0825C85.9164 30.0825 86.1504 30.0825 86.3825 30.0825C86.6162 30.0825 86.8499 30.0825 87.0838 30.0825C87.272 30.0177 87.4634 29.9536 87.7841 29.9598C87.8189 30.266 88.5747 29.9959 88.7189 29.9598C88.8741 29.9598 89.029 29.9598 89.1855 29.9598C88.9566 30.0851 88.7244 30.2085 88.4855 30.3289ZM87.3173 32.1769C86.9425 31.9634 86.6107 31.728 85.683 31.807C85.6395 31.5386 85.8734 31.4154 86.3825 31.4379C86.3946 31.595 86.6819 31.6087 86.6162 31.807C87.075 31.8441 87.0791 31.6411 87.3173 31.5613C87.3173 31.7667 87.3173 31.9716 87.3173 32.1769ZM72.6032 32.6695C72.6032 32.5462 72.6032 32.423 72.6032 32.3001C72.7584 32.3001 72.9131 32.3001 73.0701 32.3001C73.303 32.3001 73.5359 32.3001 73.7704 32.3001C73.8562 32.674 73.009 32.556 72.6032 32.6695ZM64.6605 34.5174C64.5055 34.5174 64.3506 34.5174 64.1946 34.5174C64.129 34.196 64.1141 33.9009 64.8941 34.0243C64.912 34.2395 64.8436 34.4079 64.6605 34.5174ZM40.3706 33.7784C40.3304 33.6351 40.0001 33.6447 39.6686 33.655C39.3692 33.0455 40.5842 33.3815 40.8372 33.5317C40.709 33.7106 41.1104 34.1687 40.6036 34.1472C40.3321 34.1275 40.3508 33.9529 40.3706 33.7784ZM16.08 25.2782C15.6378 25.3057 15.5639 25.1392 15.1453 25.1548C15.1453 25.0729 15.1453 24.9905 15.1453 24.9083C15.9938 25.0287 15.253 24.3084 16.3125 24.5393C16.1779 24.7555 16.5947 25.2626 16.08 25.2782ZM34.7645 4.08888C34.9204 4.08888 35.0756 4.08888 35.2306 4.08888C35.2306 4.21225 35.2306 4.33541 35.2306 4.45879C35.0754 4.45879 34.9204 4.45879 34.7645 4.45879C34.9159 4.58366 35.3023 4.58602 35.2306 4.82827C34.892 4.89564 34.0249 4.68429 34.0634 4.95164C33.7555 4.89521 32.5308 4.71154 33.3631 4.45879C33.5978 4.45879 33.83 4.45879 34.0634 4.45879C33.9238 4.13823 34.1575 4.01507 34.7645 4.08888ZM40.1369 5.32155C40.3191 5.34858 40.4094 5.42433 40.3706 5.56744C40.3706 5.60864 40.3706 5.65005 40.3706 5.69081C40.7864 5.76441 41.3396 5.3297 41.5378 5.69081C41.5677 5.91203 41.3056 5.97919 40.8372 5.93735C40.6808 5.93735 40.5256 5.93735 40.3706 5.93735C39.8097 5.88864 40.5002 6.49822 39.6686 6.3064C39.6686 6.22465 39.6686 6.14247 39.6686 6.06051C39.6686 6.01889 39.6686 5.9779 39.6686 5.93714C39.5913 5.93714 39.5134 5.93714 39.4364 5.93714C38.9688 5.93714 38.5014 5.93714 38.0348 5.93714C37.9344 6.13067 37.2995 6.04227 37.5672 6.42956C37.3342 6.42956 37.0995 6.42956 36.8659 6.42956C36.7886 6.42956 36.7109 6.42956 36.6339 6.42956C36.6339 6.18303 36.6339 5.93714 36.6339 5.6906C36.6339 5.64983 36.6339 5.60842 36.6339 5.56723C36.9957 5.53526 36.7952 5.29709 36.6339 5.19818C37.3466 5.1087 37.4847 5.32348 38.0348 5.32155C37.9915 5.21598 38.1248 5.20461 38.2667 5.19818C38.8309 5.14775 38.7758 5.42304 39.4364 5.32155C39.6688 5.32155 39.9025 5.32155 40.1369 5.32155ZM82.1782 4.95164C82.4117 4.95164 82.6456 4.95164 82.8803 4.95164C83.1902 4.95164 83.5029 4.95164 83.8135 4.95164C84.0422 5.39965 82.6758 5.0085 83.114 5.56723C82.7669 5.70991 82.5246 5.70991 82.1782 5.56723C82.0228 5.56723 81.8671 5.56723 81.7121 5.56723C81.4835 5.56401 81.5293 5.41681 81.4784 5.32133C82.0369 5.37025 81.3489 4.75982 82.1782 4.95164ZM88.2508 5.56723C88.3982 5.35738 88.9566 5.36489 89.1855 5.19818C89.2627 5.19818 89.3425 5.19818 89.4187 5.19818C89.7967 5.16342 89.8206 5.31447 90.1197 5.32155C90.2752 5.32155 90.4309 5.32155 90.5873 5.32155C90.6646 5.32155 90.7433 5.32155 90.8205 5.32155C91.1986 5.35567 91.2215 5.20461 91.5218 5.19818C91.5218 5.2383 91.5218 5.27992 91.5218 5.32155C91.3935 5.59426 91.9676 5.49642 91.9895 5.6906C91.8327 5.6906 91.6768 5.6906 91.5218 5.6906C91.1737 5.49642 90.4779 5.55349 90.5873 5.93714C90.535 6.03262 90.3906 6.07982 90.1197 6.06051C90.1197 5.89572 90.1197 5.73223 90.1197 5.56744C89.4989 5.60949 89.3015 5.8747 88.7189 5.93735C88.7715 5.72751 88.4553 5.63181 88.4855 5.93735C87.9861 5.99464 88.04 5.76119 88.0171 5.56744C87.7439 5.58761 87.8204 5.7923 87.7841 5.93735C87.3427 5.97919 86.7108 5.32005 86.6162 5.93735C86.3893 5.9337 86.4349 5.7863 86.3825 5.69081C86.3169 5.36897 86.4681 5.16062 87.0838 5.19839C87.1626 5.19839 87.2388 5.19839 87.3173 5.19839C87.3545 5.34258 87.7424 5.30202 88.0171 5.32176C87.9801 5.46402 88.0689 5.54019 88.2508 5.56723ZM93.623 5.32155C93.6499 5.4711 93.6924 5.61314 94.0906 5.56744C94.0398 5.66378 93.8946 5.71098 93.623 5.69081C93.6499 5.84101 93.6924 5.98241 94.0906 5.93735C94.0906 5.9779 94.0906 6.0191 94.0906 6.06072C93.9349 6.06072 93.7797 6.06072 93.623 6.06072C93.4819 6.053 93.346 6.04184 93.3911 5.93735C93.5173 5.75819 93.1161 5.30009 93.623 5.32155ZM37.3345 4.45879C37.4122 4.45879 37.4897 4.45879 37.5674 4.45879C37.5674 4.62271 37.5674 4.7875 37.5674 4.95164C37.3591 4.85616 37.0407 4.81904 36.6342 4.82827C36.5907 4.55942 36.8251 4.43626 37.3345 4.45879ZM84.5148 5.19818C84.5148 5.116 84.5148 5.03339 84.5148 4.95164C84.8003 4.96559 85.068 4.98833 84.9814 5.19818C84.9814 5.32155 84.9814 5.44407 84.9814 5.56723C84.9754 5.68717 84.6954 5.66271 84.5148 5.6906C84.3722 5.68374 84.2379 5.67236 84.2811 5.56723C84.2711 5.39794 84.3908 5.29709 84.5148 5.19818ZM102.032 4.82827C102.058 4.67764 102.102 4.53624 102.499 4.58216C102.577 4.58216 102.656 4.58216 102.732 4.58216C102.647 4.79115 102.915 4.81453 103.2 4.82827C103.2 4.95164 103.2 5.0748 103.2 5.19818C102.35 5.31726 103.092 4.59825 102.032 4.82827ZM84.9814 32.9161C84.5619 32.9317 84.4353 32.7936 84.5148 32.5462C84.5148 32.464 84.5148 32.3822 84.5148 32.3001C84.9739 32.2634 84.9777 32.4666 85.2146 32.5462C85.202 32.7039 84.916 32.7167 84.9814 32.9161ZM67.6971 31.5611C67.6199 31.5611 67.5419 31.5611 67.4632 31.5611C66.4042 31.7911 67.1462 31.0715 66.2963 31.1912C66.336 31.0479 66.6655 31.0575 66.9973 31.0678C67.4491 31.0228 68.2701 30.4793 68.1652 31.1912C68.2344 31.4334 67.8498 31.4354 67.6971 31.5611ZM55.7845 31.1912C55.4743 31.1912 55.1619 31.1912 54.851 31.1912C54.9212 31.4334 54.5356 31.4354 54.3834 31.5611C54.1512 31.5611 53.9168 31.5611 53.6838 31.5611C53.6838 31.3963 53.6838 31.2326 53.6838 31.0678C54.0735 31.0678 54.4624 31.0678 54.851 31.0678C54.851 30.9444 54.851 30.8213 54.851 30.6988C55.9487 30.4896 55.1544 31.277 56.2526 31.0678C56.2526 31.1092 56.2526 31.1498 56.2526 31.1912C56.0979 31.1912 55.942 31.1912 55.7845 31.1912ZM71.2016 8.5235C71.7787 8.64752 73.016 8.52972 71.9014 9.01678C71.2539 8.64516 69.8425 9.41072 69.5661 8.64666C70.0337 8.64666 70.4995 8.64666 70.9677 8.64666C70.9677 8.6061 70.9677 8.56491 70.9677 8.52328C71.0457 8.5235 71.1229 8.5235 71.2016 8.5235ZM101.33 10.0029C102.222 10.0194 103.044 9.88062 102.499 10.3718C102.499 10.4134 102.499 10.4537 102.499 10.4951C102.499 10.5769 102.499 10.6591 102.499 10.7417C102.11 10.7417 101.72 10.7417 101.33 10.7417C101.385 10.9595 101.096 11.3581 101.798 11.2341C101.798 11.3163 101.798 11.398 101.798 11.4806C101.476 11.4746 101.285 11.5388 101.097 11.6036C101.087 11.7731 101.208 11.8739 101.33 11.9735C101.033 11.9666 101.007 11.8156 100.632 11.8501C100.578 11.7548 100.624 11.6072 100.397 11.6036C100.074 11.6092 99.8839 11.5454 99.6965 11.4806C99.4973 11.8417 99.1077 11.3206 98.5276 11.4806C98.5276 11.398 98.5276 11.3163 98.5276 11.2341C98.31 11.1028 97.6676 11.1959 97.8285 10.8642C98.5462 10.7784 98.2755 10.7784 98.996 10.8642C99.1781 10.8919 99.2669 10.968 99.2296 11.1107C99.3848 11.1107 99.5396 11.1107 99.6965 11.1107C99.4603 10.7402 100.215 10.8929 100.631 10.8642C100.506 10.7657 100.388 10.6642 100.397 10.4951C99.9377 10.4584 99.9337 10.661 99.6963 10.7417C99.6963 10.6591 99.6963 10.5769 99.6963 10.4951C99.2988 10.4499 99.2548 10.5915 99.2294 10.7417C99.0294 10.5183 98.6277 10.402 98.5273 10.125C98.2944 10.125 98.0605 10.125 97.8283 10.125C97.8283 10.0845 97.8283 10.0428 97.8283 10.0027C98.63 9.61671 98.552 10.0933 99.6963 10.125C99.6963 10.0845 99.6963 10.0428 99.6963 10.0027C99.774 10.0027 99.852 10.0027 99.9289 10.0027C99.9561 9.85208 99.9994 9.7109 100.397 9.75596C100.45 9.85165 100.402 9.99863 100.631 10.0027C100.864 10.0029 101.097 10.0029 101.33 10.0029ZM101.798 14.8066C101.798 14.8892 101.798 14.9714 101.798 15.0531C101.837 15.1967 102.167 15.187 102.499 15.1765C102.499 15.2173 102.499 15.2583 102.499 15.2999C102.473 15.4501 102.429 15.5915 102.032 15.5458C102.146 15.9348 101.61 15.9813 101.798 16.4085C101.798 16.4903 101.798 16.5729 101.798 16.6551C101.476 16.6499 101.285 16.7128 101.097 16.7784C101.189 16.4826 100.034 16.8465 100.397 16.4088C100.397 16.2854 100.397 16.1624 100.397 16.0391C100.632 16.0391 100.864 16.0391 101.097 16.0391C100.998 15.8453 100.363 15.9339 100.631 15.5458C100.631 15.3406 100.631 15.1353 100.631 14.9302C100.631 14.8068 100.631 14.6837 100.631 14.5611C100.786 14.5611 100.941 14.5611 101.097 14.5611C101.33 14.5611 101.565 14.5611 101.798 14.5611C101.798 14.6425 101.798 14.7244 101.798 14.8066ZM80.7766 30.4522C80.8076 30.673 80.546 30.74 80.0778 30.699C80.1465 30.4567 79.7622 30.4544 79.6095 30.3291C79.7647 30.3291 79.9211 30.3291 80.0778 30.3291C80.1541 30.3291 80.2328 30.3291 80.3108 30.3291C80.2798 30.1078 80.5422 30.0411 81.0111 30.0825C80.6468 30.5207 81.8049 30.1566 81.7124 30.4524C81.4 30.4522 81.0896 30.4522 80.7766 30.4522ZM68.3989 30.4522C67.9097 30.5039 67.7801 30.3681 67.4629 30.3289C66.8773 30.2274 65.4536 30.5687 65.5955 30.0823C66.8959 29.9707 67.565 30.1937 68.3989 30.3289C68.3989 30.2467 68.3989 30.1649 68.3989 30.0823C68.7953 30.0373 68.8386 30.1782 68.8648 30.3289C68.8587 30.4482 68.5795 30.4243 68.3989 30.4522ZM99.6965 23.4304C99.0352 23.5319 99.0918 23.2566 98.5276 23.307C98.5276 23.1015 98.5276 22.8965 98.5276 22.691C98.2947 22.691 98.0607 22.691 97.8285 22.691C97.8411 22.6159 97.8628 22.5451 98.0607 22.5676C98.3724 22.5676 98.6833 22.5676 98.9957 22.5676C98.7474 23.027 99.4872 22.9654 99.6963 23.1836C99.6965 23.2662 99.6965 23.348 99.6965 23.4304ZM84.9814 7.16895C85.0594 7.16895 85.1382 7.16895 85.2146 7.16895C85.0411 7.54852 86.0201 7.31915 85.683 7.78454C85.527 7.78454 85.3703 7.78454 85.2146 7.78454C84.9814 7.78454 84.7485 7.78454 84.5148 7.78454C84.2811 7.78454 84.0472 7.78454 83.8135 7.78454C83.8135 7.70236 83.8135 7.62061 83.8135 7.53886C83.8135 7.41549 83.8135 7.29233 83.8135 7.16895C84.0472 7.16895 84.2811 7.16895 84.5148 7.16895C84.6698 7.16895 84.8257 7.16895 84.9814 7.16895ZM50.1793 29.3429C51.2079 29.2387 51.6924 29.494 50.8806 29.7128C50.6429 29.7927 50.6391 29.9967 50.1793 29.9596C50.1793 29.7542 50.1793 29.5485 50.1793 29.3429ZM51.3472 28.9739C50.6115 28.8357 50.8183 28.9627 49.9456 28.9739C49.9456 28.8091 49.9456 28.6456 49.9456 28.4815C50.0244 28.4815 50.1026 28.4815 50.1793 28.4815C50.8399 28.3791 50.7858 28.6544 51.3472 28.604C51.3472 28.7271 51.3472 28.8505 51.3472 28.9739ZM43.6399 27.7416C43.7675 27.5623 43.367 27.1054 43.8746 27.1256C43.8746 27.249 43.8746 27.3722 43.8746 27.4955C43.8746 27.7011 43.8746 27.9062 43.8746 28.1115C43.7967 28.1115 43.7174 28.1115 43.6399 28.1115C43.3554 28.097 43.0878 28.0744 43.1733 27.865C43.2241 27.7695 43.3683 27.7219 43.6399 27.7416ZM50.6477 30.3289C50.8937 29.8838 52.1683 29.9815 52.0485 29.3429C52.1273 29.3429 52.2038 29.3429 52.2822 29.3429C52.2822 29.4663 52.2822 29.5895 52.2822 29.7128C52.2822 29.9184 52.2822 30.1235 52.2822 30.3289C51.4099 30.3402 51.6166 30.4673 50.8806 30.3289C50.8027 30.3289 50.7254 30.3289 50.6477 30.3289ZM38.969 24.046C38.845 24.1451 38.7245 24.2457 38.7353 24.4159C38.1082 24.5008 38.2833 24.1608 38.035 24.046C38.4015 24.0346 38.8453 24.0625 38.7353 23.8001C38.8131 23.8001 38.8905 23.8001 38.969 23.8001C38.969 23.882 38.969 23.964 38.969 24.046ZM31.7286 27.1256C31.4745 27.4415 32.4389 27.7131 31.7286 27.865C31.7663 27.5979 30.9 27.809 30.5604 27.7416C30.5604 27.6595 30.5604 27.5777 30.5604 27.4955C31.0695 27.5181 31.304 27.3949 31.261 27.1256C31.4159 27.1256 31.5726 27.1256 31.7286 27.1256ZM51.3472 31.4377C50.9576 31.4377 50.569 31.4377 50.1793 31.4377C50.1894 31.2676 50.0699 31.1669 49.9456 31.0678C50.3066 30.7889 50.5219 30.7889 50.8806 31.0678C51.3397 31.1045 51.3442 30.902 51.5809 30.8213C51.8549 31.088 52.2445 31.2935 52.7481 31.4377C52.7481 31.4785 52.7481 31.5195 52.7481 31.5611C52.5159 31.5611 52.282 31.5611 52.0483 31.5611C51.8926 31.5611 51.7374 31.5611 51.5807 31.5611C51.5689 31.4858 51.5462 31.4152 51.3472 31.4377ZM92.6888 13.6982C93.0213 13.6876 93.3508 13.678 93.3908 13.8215C93.6637 13.8014 93.5868 13.5967 93.6227 13.4516C93.9075 13.4662 94.1759 13.4887 94.0903 13.6982C94.0903 13.8623 94.0903 14.0269 94.0903 14.191C93.7138 14.2253 93.6884 14.0743 93.3908 14.0676C93.383 14.1878 93.1035 14.1631 92.9224 14.191C92.2314 14.1071 92.0478 13.8765 92.6888 13.6982ZM79.3755 8.15445C79.3755 8.19607 79.3755 8.23641 79.3755 8.27782C79.9858 8.24328 80.5445 8.23555 80.3105 8.64687C79.9981 8.64687 79.688 8.64687 79.3755 8.64687C79.2203 8.64687 79.0656 8.64687 78.9089 8.64687C78.676 8.64687 78.4421 8.64687 78.2086 8.64687C78.2086 8.60632 78.2086 8.56513 78.2086 8.5235C78.1737 8.17784 78.7791 8.16861 79.3755 8.15445ZM66.7636 8.64687C66.9465 8.67391 67.0343 8.75008 66.9973 8.89341C66.5891 8.88461 66.2706 8.92109 66.0616 9.01678C66.056 8.89663 65.7768 8.92109 65.5955 8.89341C65.6757 8.45827 66.209 8.57478 66.7636 8.64687ZM63.2589 28.1115C62.9288 28.1006 62.5978 28.0909 62.5601 28.2349C61.8993 28.3366 61.9539 28.0613 61.3924 28.1115C61.3924 27.9882 61.3924 27.865 61.3924 27.7416C62.1775 28.0326 63.083 27.4996 63.2589 28.1115ZM31.261 30.8213C31.2879 30.9715 31.3311 31.1131 31.7286 31.0678C31.7656 30.9228 31.6883 30.7181 31.962 30.6988C32.283 30.6934 32.4737 30.7563 32.6618 30.8213C33.1418 31.3716 31.1885 31.2626 31.0273 31.0678C31.0796 30.9723 31.0341 30.8249 31.261 30.8213ZM59.9903 30.4522C59.978 30.2952 59.6917 30.2814 59.7566 30.0823C59.7566 30.0418 59.7566 30.0001 59.7566 29.9596C59.7566 29.8362 59.7566 29.7128 59.7566 29.5895C60.5658 29.4912 60.6539 29.7733 61.3924 29.7128C61.7579 29.7251 62.2014 29.6963 62.092 29.9596C61.8935 29.9366 61.8721 30.007 61.8583 30.0823C61.2951 30.1332 61.3507 29.8575 60.6911 29.9596C60.9233 30.1244 61.323 30.201 61.3924 30.4522C61.3924 30.5342 61.3924 30.6159 61.3924 30.699C60.9442 30.4469 60.7225 30.2694 59.9903 30.4522ZM73.303 31.0678C73.2258 31.0678 73.1473 31.0678 73.0701 31.0678C73.1269 30.6468 73.509 30.3967 73.7704 30.0821C74.7157 29.9122 74.5089 30.3497 75.1715 30.3286C75.1189 30.1194 75.4351 30.0242 75.4062 30.3286C75.4062 30.452 75.4062 30.5754 75.4062 30.6985C75.4062 30.7389 75.4062 30.7803 75.4062 30.8211C75.1073 30.8142 75.0819 30.6631 74.7041 30.6985C74.7041 30.8211 74.7041 30.9442 74.7041 31.0676C74.2377 31.0678 73.7704 31.0678 73.303 31.0678ZM102.732 13.3282C102.732 13.3699 102.732 13.4106 102.732 13.4516C102.647 13.7353 101.71 13.5696 101.799 13.9445C101.851 14.1217 102.495 13.988 102.499 14.191C102.266 14.191 102.032 14.191 101.799 14.191C101.514 14.2052 101.246 14.2277 101.331 14.4375C100.825 14.4577 101.226 14.0003 101.098 13.8215C101.033 13.4999 101.019 13.2051 101.799 13.3282C101.799 13.2463 101.799 13.1643 101.799 13.0826C101.781 12.8674 101.85 12.6991 102.032 12.5893C102.869 12.5178 102.742 12.9538 102.732 13.3282ZM83.114 6.30619C83.5029 6.30619 83.8925 6.30619 84.2811 6.30619C84.2811 6.34781 84.2811 6.38879 84.2811 6.42956C84.4424 6.76128 83.7974 6.66816 83.5801 6.79947C83.5801 6.75828 83.5801 6.71686 83.5801 6.6761C83.6493 6.43407 83.2644 6.43192 83.114 6.30619ZM42.2391 33.2851C42.5347 33.7703 41.6875 33.6522 41.0697 33.655C40.9849 33.2817 41.8316 33.3997 42.2391 33.2851ZM61.1582 31.0678C61.2347 31.0678 61.3134 31.0678 61.3922 31.0678C61.5479 31.0678 61.7028 31.0678 61.858 31.0678C62.1697 31.0678 62.4813 31.0678 62.793 31.0678C62.8129 31.2616 63.3876 31.1642 63.2589 31.4377C63.7094 31.3882 63.2815 30.8732 64.1949 31.0678C64.3506 31.0678 64.5058 31.0678 64.6607 31.0678C64.6099 31.1642 64.4655 31.2114 64.1949 31.1912C64.1254 31.4334 64.5095 31.4354 64.6607 31.5611C64.6607 31.6428 64.6607 31.725 64.6607 31.8068C64.5058 31.8068 64.3508 31.8068 64.1949 31.8068C64.1561 31.9514 63.7682 31.9106 63.4936 31.9301C63.2853 31.8347 62.9658 31.798 62.5601 31.8068C62.5601 31.725 62.5601 31.6428 62.5601 31.5611C62.0919 31.5611 61.6243 31.5611 61.1585 31.5611C61.002 31.5611 60.8461 31.5611 60.6911 31.5611C60.7905 31.3673 61.4254 31.4551 61.1582 31.0678ZM70.9677 31.0678C70.6925 31.0871 70.3044 31.0468 70.2664 31.1912C69.6061 31.2927 69.6617 31.0176 69.0987 31.0678C68.8587 30.6546 69.8262 30.876 70.2664 30.8213C70.2488 30.6069 70.3189 30.4385 70.4995 30.3289C70.6807 30.3568 70.9609 30.3325 70.9677 30.4522C70.9677 30.5756 70.9677 30.699 70.9677 30.8213C71.3812 30.85 72.1366 30.6973 71.9012 31.0678C71.7593 31.1041 71.0031 31.3744 70.9677 31.0678ZM99.2299 5.93714C98.9135 5.97533 98.7832 6.11244 98.2952 6.06051C98.2952 5.93714 98.2952 5.81398 98.2952 5.6906C98.7089 5.71828 99.4651 5.56637 99.2299 5.93714ZM73.7704 7.53886C74.1384 7.55023 74.5796 7.52234 74.4719 7.78454C74.315 7.78454 74.1593 7.78454 74.0043 7.78454C73.9256 7.78454 73.8491 7.78454 73.7704 7.78454C73.7704 7.90791 73.7704 8.03107 73.7704 8.15445C73.4952 8.17376 73.1081 8.13342 73.0701 8.27782C72.0918 8.3246 72.8145 7.82981 73.0701 7.78454C72.6812 7.78454 72.2908 7.78454 71.9012 7.78454C71.7459 7.09879 72.52 7.66824 73.3028 7.53886C73.4595 7.53886 73.6154 7.53886 73.7704 7.53886ZM34.0634 5.19818C34.2201 5.19818 34.3751 5.19818 34.5318 5.19818C34.6266 5.40781 34.8319 5.17157 35.2306 5.19818C35.2306 5.2383 35.2306 5.27992 35.2306 5.32155C35.2213 5.49084 35.3415 5.59147 35.464 5.6906C35.4132 5.78608 35.4595 5.93349 35.2306 5.93714C35.2052 5.78694 35.1627 5.64554 34.7645 5.6906C34.5773 5.62537 34.3859 5.56208 34.0634 5.56723C33.9409 5.66636 33.8197 5.76699 33.83 5.93714C33.6745 5.93714 33.5188 5.93714 33.3631 5.93714C33.2851 5.93714 33.2079 5.93714 33.1302 5.93714C33.1994 5.69511 32.8145 5.69253 32.6618 5.56723C32.8175 5.56723 32.9742 5.56723 33.1302 5.56723C33.3035 5.18723 32.324 5.41768 32.6618 4.95164C33.5875 4.79179 33.14 5.35652 34.0634 5.19818ZM7.20405 22.3217C7.45384 22.2069 7.2765 21.8668 7.90435 21.9518C7.89354 22.1217 8.01377 22.2226 8.13804 22.3217C8.54378 22.7288 8.55208 22.6223 7.90435 22.9373C7.7484 22.9373 7.59344 22.9373 7.43774 22.9373C7.53332 22.6404 7.01037 22.67 7.20405 22.3217ZM6.50275 20.8429C6.50275 20.9256 6.50275 21.0073 6.50275 21.0895C6.48288 21.2644 6.46426 21.4379 6.73643 21.4594C6.73643 21.4997 6.73643 21.5414 6.73643 21.5819C6.84661 21.8452 6.40314 21.8173 6.03614 21.8284C5.76371 21.8083 5.78157 21.6338 5.80245 21.4594C5.80245 21.3764 5.80245 21.2946 5.80245 21.2129C5.64674 21.2129 5.49079 21.2129 5.33483 21.2129C5.33483 21.1714 5.33483 21.1307 5.33483 21.0895C6.21825 21.2678 5.78384 20.7511 6.50275 20.8429ZM10.2404 25.1548C10.2404 25.2782 10.2404 25.4014 10.2404 25.5243C9.50518 25.6653 9.67195 25.3308 9.30545 25.2782C9.37865 25.1104 9.89004 25.1763 10.2404 25.1548ZM15.6119 24.046C15.3272 24.0322 15.0588 24.0089 15.1453 23.8001C15.1453 23.6353 15.1453 23.4714 15.1453 23.3068C14.8568 22.9648 15.9004 22.9648 15.6119 23.3068C15.6119 23.348 15.6119 23.3888 15.6119 23.4302C15.7762 23.8089 15.7762 23.6668 15.6119 24.046ZM102.499 3.10359C102.681 3.13063 102.771 3.20637 102.732 3.34992C103.535 3.29584 104.042 3.39862 104.601 3.47329C104.563 3.27095 106.041 3.27095 106.002 3.47329C105.718 3.48724 105.45 3.50998 105.536 3.71982C106.045 3.6973 106.279 3.82046 106.237 4.08888C106.002 4.08888 105.769 4.08888 105.536 4.08888C105.484 3.99318 105.53 3.84577 105.302 3.84298C105.031 3.86272 104.886 3.81509 104.835 3.71982C104.503 3.70931 104.174 3.69965 104.134 3.84298C104.057 3.84298 103.978 3.84298 103.9 3.84298C103.862 3.69965 103.531 3.70931 103.2 3.71982C102.832 3.70759 102.391 3.73635 102.5 3.47329C102.11 3.47329 101.72 3.47329 101.331 3.47329C101.189 3.46599 101.055 3.45462 101.098 3.34992C102.022 3.50912 101.575 2.9446 102.499 3.10359ZM99.9292 5.19818C100.085 5.19818 100.242 5.19818 100.397 5.19818C100.425 5.47003 101.388 5.24967 101.798 5.32155C102.038 5.73502 101.071 5.51294 100.631 5.56744C100.163 5.56744 99.6965 5.56744 99.2296 5.56744C99.2296 5.48526 99.2296 5.40351 99.2296 5.32155C99.5038 5.3016 99.8925 5.34236 99.9292 5.19818ZM93.3911 4.82827C93.4419 4.73278 93.3966 4.58516 93.623 4.58216C93.4826 4.90165 93.7171 5.02502 94.3243 4.95164C95.1745 4.85981 94.7655 5.37626 94.0906 5.19818C93.623 5.19818 93.1574 5.19818 92.689 5.19818C92.3253 4.75982 93.4826 5.12372 93.3911 4.82827ZM78.9089 4.82827C79.3755 4.82827 79.8431 4.82827 80.3105 4.82827C80.3105 4.99262 80.3105 5.15655 80.3105 5.32155C80.9439 5.43548 80.8566 4.56113 81.4784 5.07501C81.4754 5.23744 81.0697 5.18745 81.0108 5.32155C81.0486 5.46424 80.96 5.5404 80.7764 5.56744C80.3805 5.61336 80.3367 5.4711 80.3103 5.32155C80.2323 5.32155 80.1536 5.32155 80.0773 5.32155C80.0773 5.44407 80.0773 5.56744 80.0773 5.6906C79.4611 5.65863 79.3099 5.4372 79.3753 5.93714C79.2201 5.93714 79.0654 5.93714 78.9087 5.93714C78.9132 5.64705 78.5062 5.57409 78.6757 5.19818C78.1764 5.14003 78.2305 5.37369 78.2081 5.56723C78.1294 5.56723 78.0524 5.56723 77.9737 5.56723C78.0436 5.32498 77.6588 5.32262 77.5076 5.19818C77.9274 5.21384 78.0537 5.07523 77.9737 4.82827C78.2864 4.82827 78.597 4.82827 78.9089 4.82827ZM76.5731 4.58216C76.6687 4.37189 76.8732 4.60791 77.2744 4.58216C77.0807 4.28949 77.6037 4.01421 77.5078 4.45879C77.5078 4.62271 77.5078 4.7875 77.5078 4.95164C77.4301 4.95164 77.3514 4.95164 77.2744 4.95164C77.2367 4.80702 76.8478 4.84779 76.5731 4.82827C76.5343 4.97181 76.2036 4.96215 75.8728 4.95164C75.4839 4.95164 75.0935 4.95164 74.7041 4.95164C74.4722 4.95164 74.238 4.95164 74.0046 4.95164C73.6179 4.33713 75.1375 4.72785 75.4062 4.45879C75.4062 4.58216 75.4062 4.70468 75.4062 4.82827C76.1248 4.92053 75.6904 4.403 76.5731 4.58216ZM74.4717 3.84298C74.7036 3.84298 74.9375 3.84298 75.1712 3.84298C75.4444 3.86315 75.4258 4.03759 75.4059 4.21225C75.2354 3.93181 73.789 4.32597 74.0043 3.84298C74.159 3.84298 74.315 3.84298 74.4717 3.84298ZM50.8806 3.84298C51.1143 3.84298 51.3473 3.84298 51.5809 3.84298C52.0486 3.84298 52.5159 3.84298 52.982 3.84298C53.4502 3.84298 53.9168 3.84298 54.3834 3.84298C54.9707 3.94383 56.3955 3.60332 56.2526 4.08888C56.3306 4.08888 56.4078 4.08888 56.4863 4.08888C56.5119 3.93847 56.5557 3.79728 56.9539 3.84298C57.0897 4.13565 57.3103 4.41609 56.4863 4.45879C56.4863 4.49934 56.4863 4.54096 56.4863 4.58216C56.6329 5.19217 55.5978 4.07922 55.7845 4.95164C55.708 4.95164 55.6293 4.95164 55.5523 4.95164C55.4004 4.82591 55.0155 4.82419 55.0857 4.58216C54.8475 4.66176 54.8427 4.86496 54.3836 4.82827C54.4941 4.56542 54.0506 4.59332 53.6841 4.58216C53.6841 4.66434 53.6841 4.74609 53.6841 4.82827C53.4102 4.80853 53.4874 4.60383 53.4504 4.45879C53.1179 4.44827 52.7886 4.43862 52.7483 4.58216C52.3728 4.6167 52.3474 4.46565 52.0485 4.45879C52.0287 4.63323 52.0101 4.80767 52.2822 4.82827C52.2445 4.97245 51.8564 4.9319 51.5809 4.95164C51.271 4.95164 50.9576 4.95164 50.6477 4.95164C50.6208 5.10184 50.5773 5.24323 50.1793 5.19818C50.1793 5.32155 50.1793 5.44407 50.1793 5.56723C50.414 5.56723 50.6477 5.56723 50.8806 5.56723C51.2019 5.56186 51.3945 5.62516 51.5809 5.6906C51.5809 5.56723 51.5809 5.44407 51.5809 5.32155C51.8664 5.33485 52.1341 5.35824 52.0485 5.56744C52.4151 5.55607 52.8588 5.58396 52.7483 5.32155C52.9767 5.32434 52.931 5.47174 52.982 5.56744C53.3717 5.56744 53.7603 5.56744 54.1512 5.56744C54.2284 5.56744 54.3067 5.56744 54.3834 5.56744C54.5401 5.56744 54.6961 5.56744 54.851 5.56744C54.9043 5.47196 54.858 5.32434 55.0857 5.32155C55.1365 5.22521 55.2809 5.17758 55.5523 5.19818C55.8632 5.19818 56.1741 5.19818 56.4865 5.19818C56.3625 5.2973 56.2428 5.39815 56.2529 5.56723C56.4865 5.56723 56.7205 5.56723 56.9542 5.56723C57.8605 5.98434 58.1221 5.27134 59.0553 5.32133C59.0123 5.58954 59.2467 5.71291 59.7566 5.69039C59.692 5.8895 59.978 5.90216 59.9903 6.06029C60.1463 6.06029 60.3012 6.06029 60.4564 6.06029C60.5814 5.96117 60.7002 5.86054 60.6911 5.69039C60.7419 5.59405 60.8863 5.54727 61.1585 5.56701C61.2349 5.56701 61.3137 5.56701 61.3924 5.56701C62.186 5.4063 63.0217 5.84144 63.2591 5.56701C63.3386 5.56701 63.4166 5.56701 63.4938 5.56701C64.6793 5.75969 64.6871 5.0939 65.1283 5.56701C65.3552 5.56379 65.3094 5.4166 65.3628 5.32112C65.4392 5.32112 65.518 5.32112 65.596 5.32112C65.8296 5.32112 66.0621 5.32112 66.2965 5.32112C66.581 5.33442 66.8494 5.35781 66.7639 5.56701C67.0393 5.58632 67.4264 5.54598 67.4634 5.69039C67.8717 5.69918 68.1909 5.66335 68.3994 5.56701C68.788 5.56701 69.1779 5.56701 69.5666 5.56701C69.8013 5.56701 70.0342 5.56701 70.2669 5.56701C70.2669 5.60821 70.2669 5.64962 70.2669 5.69039C70.5001 5.69039 70.7335 5.69039 70.9682 5.69039C71.512 5.69039 72.0581 5.69039 72.6037 5.69039C73.5271 5.53161 73.0789 6.0957 74.0048 5.93692C74.8422 5.92812 75.9065 6.03605 76.106 5.69039C75.8846 6.13561 77.0264 5.86247 77.5083 5.93692C77.5083 5.97747 77.5083 6.01867 77.5083 6.06029C76.9622 6.06029 76.4184 6.06029 75.873 6.06029C75.0978 6.02039 74.9911 6.33386 74.4722 6.42935C74.7828 6.42935 75.0938 6.42935 75.4064 6.42935C75.5614 6.42935 75.7163 6.42935 75.873 6.42935C76.1839 6.42935 76.4964 6.42935 76.8073 6.42935C76.8073 6.51152 76.8073 6.59413 76.8073 6.67588C77.2261 6.66022 77.3534 6.7984 77.2749 7.04536C76.9532 7.03957 76.7617 7.10372 76.5736 7.16874C76.5736 7.25048 76.5736 7.33309 76.5736 7.41527C76.4184 7.41527 76.2627 7.41527 76.106 7.41527C75.832 7.43458 75.9093 7.64014 75.873 7.78432C75.4532 7.80084 75.3259 7.66266 75.4064 7.41527C75.3277 7.41527 75.2505 7.41527 75.1717 7.41527C75.209 7.2698 75.1325 7.06553 75.4064 7.04536C75.4064 6.92242 75.4064 6.79926 75.4064 6.67588C74.7212 6.68425 74.894 7.14535 74.0048 7.04536C73.8064 7.02283 73.784 7.09321 73.7709 7.16874C73.429 7.16788 71.8594 7.21508 72.6037 7.04536C73.1005 7.10308 73.0479 6.86942 73.0706 6.67588C73.2771 6.77136 73.5981 6.80848 74.0048 6.79926C74.0048 6.6349 74.0048 6.47097 74.0048 6.30597C73.5156 6.25383 73.386 6.39094 73.0706 6.42935C73.0706 6.38858 73.0706 6.3476 73.0706 6.30597C72.6923 6.27143 72.6669 6.42248 72.3693 6.42935C72.2141 6.42935 72.0581 6.42935 71.9017 6.42935C71.5908 6.42935 71.2793 6.42935 70.9682 6.42935C70.5702 6.38429 70.527 6.52569 70.5001 6.67588C71.0107 6.65335 71.2446 6.77651 71.2019 7.04536C70.7936 7.03614 70.4744 7.07325 70.2669 7.16874C69.4114 7.09707 69.3243 7.10909 68.1657 7.04536C67.7678 7.09106 67.7245 6.94988 67.6976 6.79926C67.931 6.79926 68.1657 6.79926 68.3994 6.79926C68.8653 6.79926 69.3326 6.79926 69.801 6.79926C70.0757 6.77994 70.4631 6.82071 70.4998 6.67588C70.2737 6.67223 70.3192 6.52483 70.2666 6.42935C69.5477 6.33794 69.9829 6.8544 69.099 6.67588C68.865 6.67588 68.6321 6.67588 68.3992 6.67588C66.5083 6.67824 68.1454 6.3137 68.3992 6.06029C67.6848 6.14891 67.7117 5.84745 66.9976 5.93692C66.3295 6.12788 67.4835 6.51152 66.7639 6.67588C66.3659 6.72094 66.3234 6.57954 66.2965 6.42935C66.0424 6.46046 66.1383 6.67481 65.8296 6.67588C65.0727 6.82779 65.65 6.27743 64.8947 6.42935C64.9533 6.29546 65.3593 6.34588 65.3628 6.18281C64.9533 5.9882 64.1176 6.01803 63.4938 5.93692C63.0873 5.92727 62.7681 5.96395 62.5603 6.06029C62.0922 6.06029 61.6246 6.06029 61.1587 6.06029C61.0933 6.25898 61.3801 6.27228 61.3927 6.42935C61.0546 6.76793 60.6159 6.67073 60.4567 6.30597C60.0378 6.29009 59.9113 6.42849 59.9905 6.67588C59.7631 6.67223 59.8084 6.52483 59.7569 6.42935C59.2379 6.36154 59.4238 6.66472 59.0556 6.67588C59.126 6.43385 58.7409 6.43171 58.5882 6.30597C58.8737 6.29267 59.1411 6.26928 59.0556 6.06008C58.8221 6.06008 58.5882 6.06008 58.3553 6.06008C57.8884 6.06008 57.4203 6.06008 56.9542 6.06008C56.7969 6.06008 56.6417 6.06008 56.4865 6.06008C56.2984 5.99485 56.107 5.93156 55.7847 5.93671C55.7724 6.01202 55.7508 6.08261 55.5526 6.06008C55.3189 6.06008 55.0859 6.06008 54.8513 6.06008C54.6963 6.06008 54.5403 6.06008 54.3836 6.06008C53.9781 6.06888 53.6579 6.0324 53.4504 5.93671C53.4504 5.97726 53.4504 6.01846 53.4504 6.06008C53.2167 6.06008 52.9823 6.06008 52.7483 6.06008C52.3595 6.06008 51.9698 6.06008 51.5812 6.06008C51.504 6.06008 51.426 6.06008 51.3475 6.06008C51.1918 6.06008 51.0368 6.06008 50.8809 6.06008C50.8029 6.06008 50.7257 6.06008 50.648 6.06008C50.5961 5.96374 50.4528 5.91654 50.1796 5.93671C50.2228 6.04099 50.0888 6.05236 49.9459 6.06008C49.9861 5.79252 49.1176 6.00365 48.7787 5.93671C48.6167 5.55714 48.6167 5.69983 48.7787 5.32112C49.1767 5.2752 49.2194 5.41639 49.2464 5.56701C49.52 5.54727 49.4431 5.34301 49.48 5.19796C49.2516 5.19388 49.2994 5.04691 49.2464 4.95142C48.7357 4.97395 48.5033 4.85015 48.5451 4.58194C48.6238 4.58194 48.7018 4.58194 48.7787 4.58194C49.0124 4.58194 49.2463 4.58194 49.48 4.58194C49.801 4.58709 49.9914 4.52358 50.1796 4.45857C50.1796 4.58194 50.1796 4.70446 50.1796 4.82805C50.3348 4.82805 50.492 4.82805 50.648 4.82805C50.9579 4.82805 51.2713 4.82805 51.5812 4.82805C51.5812 4.70446 51.5812 4.58194 51.5812 4.45857C51.6697 3.94276 50.7327 4.32404 50.648 4.45857C50.5531 3.84127 49.9205 4.50084 49.48 4.45857C49.48 4.3352 49.48 4.21204 49.48 4.08866C49.1807 4.09553 49.1558 4.24658 48.7787 4.21203C48.6361 4.20517 48.5018 4.1938 48.5451 4.08866C48.5974 3.99296 48.5521 3.84556 48.7787 3.84277C49.0124 3.84277 49.2463 3.84277 49.48 3.84277C49.9456 3.84298 50.414 3.84298 50.8806 3.84298ZM46.4434 3.71982C46.6771 3.71982 46.9095 3.71982 47.1432 3.71982C47.1432 3.84298 47.1432 3.9655 47.1432 4.08888C46.7445 4.66541 46.5106 3.33661 46.4434 4.08888C45.9745 4.13115 45.7122 4.0642 45.7423 3.84298C45.7423 3.80157 45.7423 3.76038 45.7423 3.71982C45.9758 3.71982 46.2097 3.71982 46.4434 3.71982ZM44.3405 4.08888C44.1901 4.2144 43.8042 4.21654 43.8744 4.45879C44.2633 4.45879 44.6519 4.45879 45.0415 4.45879C45.3525 4.45879 45.6651 4.45879 45.9758 4.45879C46.1649 4.96923 45.2956 4.92139 45.0415 5.19818C45.0415 5.0748 45.0415 4.95164 45.0415 4.82827C44.8086 4.82827 44.5739 4.82827 44.3405 4.82827C44.335 4.94821 44.0557 4.92375 43.8744 4.95164C43.7964 4.95164 43.7172 4.95164 43.6397 4.95164C43.3082 4.96215 42.9794 4.97181 42.9394 4.82827C42.7834 4.82827 42.6277 4.82827 42.4725 4.82827C42.6994 4.37983 41.3333 4.77184 41.7712 4.21225C42.0052 4.21225 42.2388 4.21225 42.4725 4.21225C42.5243 4.11591 42.6677 4.06957 42.9394 4.08888C42.9666 4.3249 43.7217 3.94469 44.3405 4.08888ZM40.1369 4.58216C40.3191 4.60962 40.4094 4.68537 40.3706 4.82827C41.0903 4.92053 40.6554 4.403 41.5378 4.58216C41.5378 4.66434 41.5378 4.74609 41.5378 4.82827C41.3564 4.85616 41.0772 4.83191 41.0694 4.95164C40.7006 4.9407 40.18 5.01086 40.1367 4.82827C39.981 4.82827 39.8253 4.82827 39.6686 4.82827C39.4364 4.82827 39.2025 4.82827 38.9688 4.82827C38.6055 4.39034 39.7609 4.7536 39.6686 4.45879C39.8514 4.48582 40.1306 4.462 40.1369 4.58216ZM34.7645 3.10359C34.7645 3.18556 34.7645 3.26752 34.7645 3.34992C34.7275 3.49496 34.8047 3.69966 34.5318 3.71982C33.6129 3.87517 33.8365 3.42887 33.83 3.10359C33.8697 2.9195 33.7472 2.64915 34.0634 2.61095C34.2973 2.77531 34.6953 2.85255 34.7645 3.10359ZM28.9259 3.34992C28.3627 3.29949 28.4183 3.57478 27.758 3.47329C27.758 3.22697 27.758 2.98043 27.758 2.73433C27.7942 2.58885 27.7172 2.38437 27.9901 2.3642C28.5061 2.50324 28.3541 2.99395 28.9259 3.10359C28.9259 3.18556 28.9259 3.26752 28.9259 3.34992ZM24.9553 2.61095C24.7329 2.16552 25.8749 2.43887 26.3569 2.3642C26.3863 2.58542 26.1247 2.65279 25.6556 2.61095C25.6556 2.65151 25.6556 2.69313 25.6556 2.73433C25.6981 3.00296 25.4641 3.12591 24.9553 3.10359C24.8873 3.02785 24.3737 2.62941 24.9553 2.61095ZM21.2178 2.61095C21.9516 2.75192 21.7848 2.41741 22.1513 2.3642C21.8635 2.76265 22.9089 2.45861 22.6194 2.85749C22.0215 2.95275 21.7337 3.21109 21.9191 3.71982C21.1338 3.80544 21.1537 3.46621 20.7502 3.34992C20.7102 3.00039 21.5395 3.10982 21.2178 2.61095ZM18.648 2.98022C18.8825 2.98022 19.1164 2.98022 19.3483 2.98022C19.3483 3.22675 19.3483 3.47308 19.3483 3.71982C19.5297 3.74686 19.8104 3.72261 19.8165 3.84298C19.6608 3.84298 19.5048 3.84298 19.3483 3.84298C19.0752 3.82346 18.6858 3.86401 18.648 3.71982C18.5208 3.54088 18.9212 3.08257 18.4151 3.10359C18.3879 3.254 18.3449 3.39519 17.9475 3.34992C17.8079 3.02978 18.0408 2.90662 18.648 2.98022ZM13.7434 26.3867C13.7533 26.5568 13.6338 26.6574 13.5095 26.7566C13.5885 26.7566 13.6665 26.7566 13.7434 26.7566C13.6162 26.9355 14.0171 27.3936 13.5095 27.3722C13.839 26.8284 12.1127 27.37 12.1079 27.0022C12.2908 26.9752 12.3811 26.8995 12.3426 26.7563C12.3426 26.633 12.3426 26.5098 12.3426 26.3864C12.6628 26.106 11.7401 25.9232 12.3426 25.894C12.6643 25.8889 12.855 25.9517 13.0429 26.0174C13.0947 25.921 13.2388 25.8734 13.5095 25.894C13.5799 25.6518 13.1948 25.6494 13.0429 25.5241C13.0562 25.3239 14.1962 24.833 13.0429 24.7847C12.8155 24.3427 14.1809 24.4983 13.7434 24.9081C13.7704 25.0583 13.8136 25.1997 14.2108 25.1546C14.245 25.2997 14.6269 25.4338 14.2108 25.5241C14.2108 25.6885 14.2108 25.8524 14.2108 26.0174C14.4855 26.0358 14.8744 25.9959 14.9106 26.1408C15.1521 26.5542 14.1854 26.3326 13.7434 26.3867ZM17.2472 25.5243C17.0135 25.5243 16.7796 25.5243 16.5459 25.5243C16.5459 25.4014 16.5459 25.2782 16.5459 25.1548C16.5459 24.9497 16.5459 24.7442 16.5459 24.5393C16.5459 24.4976 16.5459 24.4566 16.5459 24.4159C16.3648 24.3888 16.275 24.3127 16.3122 24.1693C16.2466 23.8473 16.3977 23.6389 17.0135 23.6769C17.0135 23.8001 17.0135 23.9226 17.0135 24.046C17.0922 24.046 17.1692 24.046 17.2472 24.046C17.2472 24.1693 17.2472 24.2925 17.2472 24.4159C17.2472 24.5798 17.2472 24.7442 17.2472 24.9083C17.2472 25.1136 17.2472 25.3188 17.2472 25.5243ZM17.9477 26.2633C17.9477 25.8942 17.9477 25.5243 17.9477 25.1548C18.0758 24.9759 17.6746 24.5182 18.1814 24.5393C18.3364 24.5393 18.4928 24.5393 18.648 24.5393C18.648 24.6616 18.648 24.7851 18.648 24.9083C18.8048 24.9083 18.9597 24.9083 19.1164 24.9083C19.2102 25.6018 18.1754 25.7728 19.1164 26.2633C18.4134 26.1393 18.7014 26.5377 18.648 26.7566C18.0287 26.7956 18.8664 26.0663 17.9477 26.2633ZM75.8725 34.1475C75.6394 34.1475 75.4059 34.1475 75.1712 34.1475C74.7823 34.1475 74.3927 34.1475 74.0041 34.1475C73.9253 34.1475 73.8489 34.1475 73.7701 34.1475C73.6152 34.1475 73.4592 34.1475 73.3028 34.1475C72.9061 34.701 72.1648 34.3069 71.2014 34.5174C70.8774 34.0181 71.7075 34.1273 71.669 33.7784C71.7462 33.7784 71.8249 33.7784 71.9012 33.7784C71.8795 34.1588 72.607 34.1455 73.3028 34.1475C73.2238 33.9001 73.3513 33.7627 73.7701 33.7784C73.8104 33.5108 72.9418 33.722 72.603 33.655C72.3685 33.655 72.1348 33.655 71.9012 33.655C71.669 33.655 71.435 33.655 71.2014 33.655C71.5749 33.1699 70.1917 33.6123 70.2664 33.2851C70.1107 33.2851 69.9557 33.2851 69.8005 33.2851C69.8423 33.3903 69.7087 33.4016 69.5658 33.4085C69.5658 33.4903 69.5658 33.5733 69.5658 33.655C69.1772 33.655 68.7873 33.655 68.3987 33.655C68.165 33.655 67.9303 33.655 67.6969 33.655C67.6196 33.655 67.5416 33.655 67.4629 33.655C66.7563 33.6587 66.8821 33.2227 66.7634 32.9161C66.9971 32.9161 67.231 32.9161 67.4629 32.9161C67.5419 32.9161 67.6196 32.9161 67.6969 32.9161C68.3901 33.0845 68.7151 32.844 69.8005 32.9161C70.0334 32.9161 70.2664 32.9161 70.4993 32.9161C70.4993 32.8339 70.4993 32.7513 70.4993 32.6695C70.8889 32.6695 71.2786 32.6695 71.6687 32.6695C71.746 32.6695 71.8247 32.6695 71.9009 32.6695C71.7128 33.1386 72.5869 33.0476 72.6027 33.4085C73.1528 33.4113 73.2892 33.1965 74.0038 33.2851C74.0038 33.2034 74.0038 33.1212 74.0038 33.0395C74.1588 33.0395 74.3145 33.0395 74.4714 33.0395C74.9071 33.598 73.5432 33.207 73.7699 33.655C74.0446 33.6739 74.4324 33.634 74.4714 33.7784C74.7821 33.7784 75.093 33.7784 75.4057 33.7784C75.8723 33.7784 76.3381 33.7784 76.8065 33.7784C76.6782 33.9574 77.0789 34.4146 76.5728 34.394C76.6023 34.1734 76.3407 34.1056 75.8725 34.1475ZM92.2221 29.9596C91.9814 29.5453 92.9478 29.768 93.3911 29.7128C93.3639 29.8637 93.3206 30.0046 92.9227 29.9596C92.6465 29.9768 92.3924 30.1782 92.2221 29.9596ZM119.315 4.45879C119.549 4.45879 119.783 4.45879 120.017 4.45879C120.068 4.3633 120.025 4.21611 120.25 4.21225C120.25 4.33563 120.25 4.45879 120.25 4.58216C119.911 4.92053 119.475 4.82247 119.315 4.45879Z" fill="#FFFEFE"/>
  <path d="M50.5442 34.9804C50.7006 35.3561 50.7006 35.2154 50.5442 35.5914C50.8079 35.7325 51.3314 35.7293 51.8801 35.7138C51.8801 35.6727 51.8801 35.6327 51.8801 35.5914C51.9141 35.4475 51.8406 35.2444 52.1012 35.2243C52.1012 35.1428 52.1012 35.0615 52.1012 34.9804C51.8083 34.9817 51.8993 35.1943 51.6569 35.2243C50.9724 35.3159 51.3858 34.8033 50.5442 34.9804Z" fill="#FFFEFE"/>
  <path d="M21.4124 35.7138C21.5614 35.7138 21.7096 35.7138 21.8581 35.7138C21.4775 35.5967 21.41 35.3081 20.9684 35.2246C20.2951 35.3736 21.0869 35.7132 21.4124 35.7138Z" fill="#FFFEFE"/>
  <path d="M40.5394 2.59061C40.7619 2.59061 40.9832 2.59061 41.2064 2.59061C41.2064 2.46821 41.2064 2.3458 41.2064 2.22339C40.5057 2.3607 40.7023 2.23467 39.8719 2.22339C39.8719 2.3458 39.8719 2.46799 39.8719 2.59061C39.946 2.59061 40.0195 2.59061 40.0942 2.59061C40.242 2.59061 40.3905 2.59061 40.5394 2.59061Z" fill="#FFFEFE"/>
  <path d="M63.4423 2.71297C63.4423 2.79408 63.4423 2.87562 63.4423 2.95715C63.8872 2.95715 64.3322 2.95715 64.776 2.95715C64.9858 2.51542 63.9004 2.78642 63.4423 2.71297Z" fill="#FFFEFE"/>
  <path d="M51.4373 3.32374C51.659 3.32374 51.8822 3.32374 52.1033 3.32374C52.2525 3.32374 52.401 3.32374 52.5485 3.32374C52.7162 2.94715 51.7817 3.17493 52.1033 2.71297C52.03 2.71297 51.9558 2.71297 51.8822 2.71297C51.5101 2.71297 51.1398 2.71297 50.7691 2.71297C50.6881 2.92032 50.9429 2.9431 51.2148 2.95715C51.1245 3.26094 50.1967 3.05039 50.5463 2.71297C50.0733 2.65571 50.1231 2.88711 50.1025 3.07934C50.7343 3.05806 50.5367 3.49277 51.4373 3.32374Z" fill="#FFFEFE"/>
  <path d="M91.4628 3.32362C91.3409 3.14607 91.7229 2.69199 91.2403 2.71285C91.5843 3.22697 90.0895 2.73201 90.1291 3.07923C91.0083 2.92148 90.5836 3.48158 91.4628 3.32362Z" fill="#FFFEFE"/>
  <path d="M4.06674 25.3245C4.29043 24.9571 3.57146 25.1078 3.17725 25.0804C3.17725 25.2843 3.17725 25.4878 3.17725 25.6916C3.43926 25.8323 3.96303 25.8295 4.511 25.814C4.511 25.7727 4.511 25.7316 4.511 25.6916C4.03728 25.748 4.08805 25.5168 4.06674 25.3245Z" fill="#FFFEFE"/>
  <path d="M14.0736 29.8467C14.8256 29.8005 14.424 30.388 15.4074 30.2137C15.689 29.7634 14.2992 29.6136 14.0736 29.8467Z" fill="#FFFEFE"/>
  <path d="M121.486 34.2471C122.053 34.2331 122.63 34.2244 122.601 33.8801C122.229 33.8801 121.857 33.8801 121.486 33.8801C121.486 34.0025 121.486 34.1249 121.486 34.2471Z" fill="#FFFEFE"/>
  <path d="M71.2285 34.9805C71.2285 35.0616 71.2285 35.1427 71.2285 35.2245C70.7833 35.2245 70.3373 35.2245 69.894 35.2245C69.8308 35.5442 69.974 35.7501 70.5608 35.7137C70.3194 35.1363 71.3262 35.3639 71.4495 35.5913C71.4481 35.4122 71.5334 34.5912 71.2285 34.9805Z" fill="#FFFEFE"/>
  <path d="M85.4591 35.2246C85.4876 35.4943 86.4022 35.2769 86.7935 35.347C86.7935 35.1841 86.7935 35.0206 86.7935 34.8584C86.5715 34.8584 86.3497 34.8584 86.1265 34.8584C85.9196 34.9887 85.3063 34.8963 85.4591 35.2246Z" fill="#FFFEFE"/>
  <path d="M38.5377 35.3469C38.1668 35.3469 37.7967 35.3469 37.4258 35.3469C37.085 35.7227 38.8778 35.7227 38.5377 35.3469Z" fill="#FFFEFE"/>
  <path d="M47.4327 35.7138C47.581 35.7138 47.7287 35.7138 47.8763 35.7138C48.1739 35.7138 48.47 35.7138 48.7665 35.7138C49.1382 35.7138 49.5084 35.7138 49.8784 35.7138C49.8784 35.5914 49.8784 35.4692 49.8784 35.3468C49.0857 35.482 47.2004 35.0155 47.4327 35.7138Z" fill="#FFFEFE"/>
</svg>